<svg width="213" height="197" viewBox="0 0 213 197" fill="none" xmlns="http://www.w3.org/2000/svg">
<ellipse cx="105.525" cy="115.958" rx="78.6892" ry="78.6201" fill="#FFF1BF"/>
<mask id="mask0_3_472" style="mask-type:luminance" maskUnits="userSpaceOnUse" x="0" y="0" width="213" height="197">
<ellipse cx="106.683" cy="98.3573" rx="106.098" ry="98.3573" fill="white"/>
</mask>
<g mask="url(#mask0_3_472)">
<path fill-rule="evenodd" clip-rule="evenodd" d="M123.556 18.7599C128.071 27.1677 127.534 48.4947 121.699 49.9974C119.373 50.5967 114.416 49.1288 109.371 46.0906L112.537 68.4743H93.8386L100.275 38.497C96.6855 34.2868 94.2559 29.1273 94.6619 23.346C95.8318 6.68748 119.041 10.3521 123.556 18.7599Z" fill="#B28B67"/>
<path fill-rule="evenodd" clip-rule="evenodd" d="M122.991 14.0247C123.327 13.0551 125.623 10.0509 121.535 7.18878C120.8 6.67446 119.586 7.1871 118.535 6.86247C117.743 6.61822 117.477 5.51533 116.57 5.32292C115.629 5.12332 114.604 6.02799 113.54 5.94848C112.889 5.89977 111.883 4.88517 111.205 4.83052C109.994 4.73296 108.894 5.87503 107.711 5.94848C107.025 5.99107 106.23 4.88883 105.549 4.83052C103.893 4.6886 102.385 5.46005 100.925 5.694C99.5801 5.90962 98.9546 8.66376 97.9637 9.31467C94.8545 11.3572 92.4184 11.9284 89.8953 14.0247C86.8961 16.5168 86.322 18.3709 85.0795 20.0315C83.837 21.6922 83.0695 27.5431 83.7941 31.2928C84.2215 33.5047 85.3354 39.5453 87.8237 41.8841C91.2295 45.0852 98.1585 46.0337 98.7736 45.6066C101.622 43.6285 108.008 32.6881 112.537 28.8215C115.867 25.9782 120.904 20.0315 122.991 14.0247Z" fill="#FF9B21"/>
<mask id="mask1_3_472" style="mask-type:luminance" maskUnits="userSpaceOnUse" x="83" y="4" width="41" height="42">
<path fill-rule="evenodd" clip-rule="evenodd" d="M122.991 14.0247C123.327 13.0551 125.623 10.0509 121.535 7.18878C120.8 6.67446 119.586 7.1871 118.535 6.86247C117.743 6.61822 117.477 5.51533 116.57 5.32292C115.629 5.12332 114.604 6.02799 113.54 5.94848C112.889 5.89977 111.883 4.88517 111.205 4.83052C109.994 4.73296 108.894 5.87503 107.711 5.94848C107.025 5.99107 106.23 4.88883 105.549 4.83052C103.893 4.6886 102.385 5.46005 100.925 5.694C99.5801 5.90962 98.9546 8.66376 97.9637 9.31467C94.8545 11.3572 92.4184 11.9284 89.8953 14.0247C86.8961 16.5168 86.322 18.3709 85.0795 20.0315C83.837 21.6922 83.0695 27.5431 83.7941 31.2928C84.2215 33.5047 85.3354 39.5453 87.8237 41.8841C91.2295 45.0852 98.1585 46.0337 98.7736 45.6066C101.622 43.6285 108.008 32.6881 112.537 28.8215C115.867 25.9782 120.904 20.0315 122.991 14.0247Z" fill="white"/>
</mask>
<g mask="url(#mask1_3_472)">
<path fill-rule="evenodd" clip-rule="evenodd" d="M103.604 26.1646C105.703 19.7301 109.514 3.66406 109.514 3.66406L107.211 3.90588C107.211 3.90588 105.388 14.1568 103.513 20.7975C101.799 26.8687 99.8288 32.8212 98.2795 37.5014C96.1389 43.9674 94.8024 48.0046 96.0579 46.5699C96.2082 46.3981 96.3584 46.1982 96.5094 45.9701C96.5235 46.0005 96.5452 46.0183 96.5747 46.0229C96.4857 46.1986 96.6095 46.1189 96.9797 45.776L96.9811 45.7747C99.1273 43.7866 105.267 36.7816 111.698 25.1715C114.657 19.8287 120.084 6.29271 120.084 6.29271L117.929 5.3716C117.929 5.3716 114.344 16.0661 111.698 21.2519C107.044 30.3702 102.679 37.1509 99.8407 41.3077C101.017 38.9625 102.402 35.8195 104.129 31.899L104.129 31.899L104.129 31.8988C104.889 30.1725 105.716 28.2954 106.621 26.2693C109.381 20.0892 114.852 4.50924 114.852 4.50924H112.537C112.537 4.50924 109.651 14.5136 107.092 20.9221C104.752 26.781 102.17 32.4951 100.139 36.9878L100.139 36.9879L100.139 36.9879C100.105 37.0638 100.071 37.1394 100.037 37.2147C100.549 35.6616 101.103 33.9311 101.715 32.0237C102.29 30.2273 102.916 28.2741 103.604 26.1646Z" fill="black" fill-opacity="0.2"/>
</g>
<path fill-rule="evenodd" clip-rule="evenodd" d="M78.7584 133.083C80.1632 152.24 170.663 208.639 171.191 210.221C171.543 211.276 143.022 276.917 143.022 276.917L150.933 279.989C150.933 279.989 194.68 210.47 192.433 203.063C189.216 192.457 122.215 133.287 122.215 133.287L78.7584 133.083Z" fill="#B28B67"/>
<path fill-rule="evenodd" clip-rule="evenodd" d="M78.7584 133.083C80.1632 152.24 170.663 208.639 171.191 210.221C171.543 211.276 143.022 276.917 143.022 276.917L150.933 279.989C150.933 279.989 194.68 210.47 192.433 203.063C189.216 192.457 122.215 133.287 122.215 133.287L78.7584 133.083Z" fill="black" fill-opacity="0.1"/>
<path fill-rule="evenodd" clip-rule="evenodd" d="M145.104 267.034L158.02 271.732C185.255 241.029 195.931 215.697 193.984 202.79C192.038 189.882 124.009 133.13 124.009 133.13L77.8321 133.13C79.4077 177.494 163.29 210.39 164.412 212.281C165.534 214.171 154.492 232.687 145.104 267.034Z" fill="#2F3676"/>
<path fill-rule="evenodd" clip-rule="evenodd" d="M89.164 133.083L48.8487 229.783L9.22496 311.535H18.5735L120.853 133.083H89.164Z" fill="#B28B67"/>
<path fill-rule="evenodd" clip-rule="evenodd" d="M12.8032 294.552L33.5757 298.444C49.6369 274.852 116.854 178.116 124.224 133.083H77.9793C53.3681 165.637 28.1128 270.57 12.8032 294.552Z" fill="#5C63AB"/>
<path fill-rule="evenodd" clip-rule="evenodd" d="M187.513 99.3808L159.283 111.768L168.297 123.306L189.44 107.109C200.001 105.171 204.898 103.507 204.133 102.115C203.488 100.941 202.287 100.875 201.181 100.814C200.32 100.767 199.516 100.722 199.077 100.16C198.074 98.8763 200.549 94.9103 203.059 91.2471C205.57 87.5839 203.217 87.7162 201.84 88.1543C197.234 90.715 192.459 94.4572 187.513 99.3808ZM61.1164 118.344L45.1512 115.179C34.3237 143.692 27.8687 159.317 25.7859 162.054C24.2587 164.061 14.8398 169.23 8.46457 171.991C5.90563 173.099 6.45506 175.26 7.20559 175.951C11.9397 180.311 16.3408 178.783 21.1316 177.119C22.5185 176.638 23.9381 176.145 25.4079 175.78C29.2123 174.836 30.37 176.791 31.4641 178.638C32.4327 180.273 33.3515 181.825 36.0132 181.206C35.8921 180.684 35.7434 180.099 35.5829 179.468C34.5453 175.389 33.0151 169.373 35.2853 165.878C36.4503 164.084 45.0607 148.24 61.1164 118.344Z" fill="#B28B67"/>
<path fill-rule="evenodd" clip-rule="evenodd" d="M104.508 55.4997L111.245 54.3452C125.919 68.5669 131.907 102.734 141.686 107.257C150.932 111.533 164.038 107.395 179.617 101.808L184.388 112.458C170.233 127.759 140.078 140.686 127.854 133.306C108.312 121.508 103.8 79.3672 104.508 55.4997Z" fill="#1F28CF"/>
<path fill-rule="evenodd" clip-rule="evenodd" d="M75.1402 140.089C75.1402 140.089 115.659 140.089 134.75 140.089C137.474 140.089 136.961 136.159 136.567 134.176C132.023 111.29 114.283 86.6204 114.283 54.043L97.0888 51.3491C82.8669 74.2022 77.9487 102.339 75.1402 140.089Z" fill="#DDE3E9"/>
<path fill-rule="evenodd" clip-rule="evenodd" d="M96.1759 51.3491H95.9796C57.413 75.0943 34.1054 111.903 26.0568 161.774L38.5516 164.22C46.8284 154.585 57.0427 138.818 69.1947 116.918C65.4664 130.11 62.7444 143.641 61.8955 156.435H115.554C125.942 130.207 102.788 51.3491 102.788 51.3491H99.0831H96.1759Z" fill="#2B44FF"/>
</g>
</svg>
