<svg width="148" height="139" viewBox="0 0 148 139" fill="none" xmlns="http://www.w3.org/2000/svg">
<circle cx="74.5997" cy="69.5" r="69.5" fill="#FFF1BF"/>
<path fill-rule="evenodd" clip-rule="evenodd" d="M110.589 28.7921C109.368 31.0695 109.513 36.8464 111.092 37.2534C111.721 37.4157 113.062 37.0181 114.427 36.1952L113.571 42.2582H118.63L116.888 34.1383C117.859 32.9979 118.517 31.6003 118.407 30.0343C118.09 25.522 111.811 26.5147 110.589 28.7921Z" fill="#B28B67"/>
<path fill-rule="evenodd" clip-rule="evenodd" d="M110.92 27.9089C110.964 27.6338 110.876 27.4987 111.982 26.7235C113.089 25.9482 114.874 25.0338 116.673 25.4318C119.008 25.9482 119.935 27.4884 120.835 28.2372C121.646 28.9122 122.461 28.991 122.943 29.8286C123.426 30.6662 123.682 33.0759 123.263 34.034C122.684 35.3556 121.543 35.7115 120.71 36.0922C119.281 36.7452 117.261 36.0556 117.212 35.9413C116.833 35.0576 114.796 32.5648 113.571 31.5174C112.67 30.7473 110.712 29.2005 110.92 27.9089Z" fill="#5C63AB"/>
<mask id="mask0_2_378" style="mask-type:luminance" maskUnits="userSpaceOnUse" x="110" y="25" width="14" height="12">
<path fill-rule="evenodd" clip-rule="evenodd" d="M110.92 27.9089C110.964 27.6338 110.876 27.4987 111.982 26.7235C113.089 25.9482 114.874 25.0338 116.673 25.4318C119.008 25.9482 119.935 27.4884 120.835 28.2372C121.646 28.9122 122.461 28.991 122.943 29.8286C123.426 30.6662 123.682 33.0759 123.263 34.034C122.684 35.3556 121.543 35.7115 120.71 36.0922C119.281 36.7452 117.261 36.0556 117.212 35.9413C116.833 35.0576 114.796 32.5648 113.571 31.5174C112.67 30.7473 110.712 29.2005 110.92 27.9089Z" fill="white"/>
</mask>
<g mask="url(#mask0_2_378)">
<path fill-rule="evenodd" clip-rule="evenodd" d="M117.864 34.2928C120.283 31.3086 120.852 27.7095 120.852 27.7095L121.581 28.1705C121.581 28.1705 120.685 32.1036 117.864 34.2928ZM116.943 35.9326C120.858 32.4918 121.792 28.625 121.792 28.625L122.635 28.8736C122.635 28.8736 121.473 33.1975 116.943 35.9326Z" fill="black" fill-opacity="0.2"/>
</g>
<path fill-rule="evenodd" clip-rule="evenodd" d="M119.895 59.7588L104.231 85.952L92.488 108.096H89.9586L109.634 59.7588L119.895 59.7588Z" fill="#915B3C"/>
<path fill-rule="evenodd" clip-rule="evenodd" d="M92.1672 107.218C93.1379 107.218 94.2873 107.401 94.3818 108.367C94.386 108.41 94.3883 108.45 94.3883 108.487C94.3883 109.058 94.1983 110.152 94.1983 110.152C93.5368 110.152 82.309 110.152 82.309 110.152C82.309 110.152 81.8455 108.619 82.844 108.497C83.8425 108.375 84.503 108.276 84.503 108.276L89.2873 106.143C89.8019 105.913 90.4044 106.154 90.6191 106.675L90.6649 106.786C90.6649 106.786 91.5893 107.218 92.1672 107.218V107.218Z" fill="#E4E4E4"/>
<path fill-rule="evenodd" clip-rule="evenodd" d="M95.7494 104.55L90.8715 103.074C90.8715 103.074 94.0772 93.4886 98.7296 81.9769C103.382 70.4653 108.722 59.7588 108.722 59.7588H122.499C122.499 59.7588 116.562 73.302 109.91 84.3702C103.258 95.4385 95.7494 104.55 95.7494 104.55Z" fill="#DB2721"/>
<path fill-rule="evenodd" clip-rule="evenodd" d="M120.924 59.7588C122.402 68.9633 125.254 80.723 125.523 81.0859C125.702 81.3279 132.16 83.4925 144.897 87.5798L144.351 89.8107C129.162 87.6187 121.159 85.9181 120.341 84.7088C119.115 82.8948 112.991 68.5645 110.62 59.7588H120.924Z" fill="#915B3C"/>
<path fill-rule="evenodd" clip-rule="evenodd" d="M140.42 85.6512L139.458 89.2444C128.097 90.241 121.137 89.5209 118.576 87.084C116.014 84.6472 113.096 75.5388 109.819 59.7588H122.956C125.032 72.6805 126.193 79.4125 126.438 79.955C126.683 80.4974 131.344 82.3962 140.42 85.6512Z" fill="#FF4133"/>
<path fill-rule="evenodd" clip-rule="evenodd" d="M144.091 88.5147C144.26 87.5584 144.64 86.4577 145.608 86.5327C145.65 86.536 145.69 86.5408 145.727 86.5472C146.288 86.6463 147.332 87.0234 147.332 87.0234C147.218 87.675 145.268 98.735 145.268 98.735C145.268 98.735 143.679 98.9254 143.732 97.9206C143.785 96.9159 143.802 96.2482 143.802 96.2482L142.533 91.1644C142.396 90.6178 142.738 90.0664 143.288 89.9454L143.405 89.9196C143.405 89.9196 143.991 89.0839 144.091 88.5147V88.5147Z" fill="#E4E4E4"/>
<path fill-rule="evenodd" clip-rule="evenodd" d="M104.353 62.5555C108.357 70.8951 125.209 65.2641 125.209 65.2641C125.209 63.819 124.636 62.3702 124.034 60.8486C123.389 59.2171 122.71 57.5019 122.67 55.6179C122.595 52.1516 121.947 41.6495 119.243 38.1018C119.194 37.9416 119.144 37.7808 119.093 37.6196L118.906 37.7077C118.877 37.6776 118.847 37.6482 118.818 37.6196L112.917 38.5322C112.917 41.2016 111.209 43.7329 109.672 46.0115C109.298 46.5659 108.934 47.1054 108.607 47.6282C108.179 48.3131 107.696 49.0102 107.201 49.7246C104.694 53.3424 101.88 57.4026 104.353 62.5555Z" fill="#C1DEE2"/>
<path fill-rule="evenodd" clip-rule="evenodd" d="M111.914 60.9792C111.519 58.9423 111.263 57.5825 111.146 56.8997C108.002 60.4527 106.186 62.2498 105.698 62.291C104.779 62.3685 104.1 61.5535 103.907 61.7826C103.587 62.7315 104.49 65.1065 106.215 65.4519C107.038 65.6168 108.313 63.9178 108.838 63.3157C109.045 63.079 110.07 62.3001 111.914 60.9792V60.9792ZM106.484 50.1194C105.669 50.1194 105.231 50.4563 104.75 51.1362C104.268 51.816 103.812 55.0222 104.585 55.0222C105.359 55.0222 108.6 53.7828 108.6 52.9496C108.6 52.1163 106.388 51.7634 106.388 51.1362C106.388 50.5089 107.299 50.1194 106.484 50.1194Z" fill="#B28B67"/>
<path fill-rule="evenodd" clip-rule="evenodd" d="M120.198 41.5664C122.267 50.1969 121.424 57.4759 113.559 64.0785C113.651 64.4102 113.707 64.6083 113.707 64.6083C122.939 58.1544 122.943 50.3331 120.198 41.5664Z" fill="black" fill-opacity="0.2"/>
<path fill-rule="evenodd" clip-rule="evenodd" d="M86.8957 54.7444C85.6098 55.5198 84.3464 55.8945 83.7533 55.7415C82.2662 55.358 82.1294 49.9151 83.2801 47.7694C84.4308 45.6236 90.3463 44.6884 90.6444 48.9398C90.7479 50.4153 90.1286 51.7321 89.2136 52.8066L90.8543 60.457H86.0886L86.8957 54.7444Z" fill="#B28B67"/>
<path fill-rule="evenodd" clip-rule="evenodd" d="M92.7222 47.5247C92.8761 47.3721 92.9601 47.1543 93.0327 46.9474C93.1081 46.7326 93.1814 46.5155 93.2315 46.2919C93.3316 45.845 93.3325 45.3312 93.0139 44.9842C92.7584 44.706 92.375 44.5812 92.0211 44.5541C91.7853 44.536 91.5432 44.569 91.3172 44.6433C91.093 44.7171 90.8997 44.864 90.6823 44.9552C90.674 44.4737 90.5916 43.9699 90.3474 43.5587C90.1125 43.1631 89.7378 42.9411 89.3112 42.8824C88.8733 42.8221 88.4409 42.9246 88.0489 43.1367C87.9507 43.1898 87.8535 43.2455 87.7604 43.3085C87.6825 43.3612 87.6015 43.4247 87.5101 43.4462C87.4082 43.4701 87.3577 43.4112 87.2914 43.3368C87.2138 43.2496 87.1263 43.1728 87.0337 43.1047C86.6243 42.8036 86.0871 42.6798 85.6128 42.8603C85.3943 42.9435 85.1818 43.0847 85.0335 43.2792C84.9014 43.4527 84.8071 43.7278 84.6247 43.8486C84.5473 43.8999 84.4926 43.832 84.4221 43.7817C84.3163 43.7063 84.2153 43.623 84.1082 43.5496C83.9577 43.4464 83.7947 43.3693 83.6203 43.3289C83.3648 43.2698 83.0118 43.2836 82.9388 43.6183C82.9114 43.744 82.9324 43.8785 82.9412 44.0052C82.9534 44.1791 82.9661 44.353 82.9812 44.5267C82.9926 44.6585 83.0071 44.7859 83.032 44.9154C83.0453 44.9844 83.0868 45.1131 83.0572 45.1823C83.0202 45.2687 82.8496 45.2195 82.7767 45.2225C82.6327 45.2285 82.4881 45.2538 82.3549 45.3153C82.2517 45.363 82.1432 45.4332 82.0997 45.5515C82.0729 45.6242 82.08 45.6989 82.0926 45.7737C82.1078 45.8634 82.0904 45.911 82.0791 46.0016C81.8857 45.9063 81.2155 45.6946 81.1312 46.0414C81.1031 46.1568 81.167 46.2873 81.2158 46.3847C81.3014 46.5555 81.4135 46.7116 81.5282 46.8604C81.7674 47.171 82.0529 47.4389 82.3602 47.668C82.0002 47.8281 81.9062 48.3003 82.2179 48.5817C82.3555 48.7059 82.5405 48.7335 82.7141 48.7256C82.7776 48.7227 82.8692 48.6983 82.9192 48.7093C82.9461 48.7153 82.9749 48.7381 83.0122 48.7406C83.2571 48.7574 83.5337 48.6984 83.7731 48.644C84.1998 48.5471 84.6038 48.3449 84.9337 48.0368C85.0183 47.9578 85.0882 47.9123 85.2021 47.9135C85.3019 47.9145 85.3998 47.9419 85.4996 47.9444C85.7634 47.9512 86.0013 47.8221 86.2463 47.7362C86.2613 48.0674 86.3556 48.432 86.491 48.7299C86.6014 48.9729 86.8319 49.0082 87.0585 49.0295C87.783 49.0977 88.51 49.0216 89.2355 49.0226C88.5332 49.1814 87.8076 49.2468 87.1116 49.4337C86.797 49.5181 87.0373 49.7303 87.1718 49.8773C87.3933 50.1195 87.558 50.4195 87.6722 50.7356C88.0157 50.2876 88.6229 49.9925 89.1608 50.1301C89.7552 50.2821 90.1737 51.0863 89.7936 51.6644C89.573 52 89.1745 52.1295 88.8429 52.2737C89.1016 52.5427 89.1642 52.9401 89.3198 53.2748C89.3966 53.4399 89.5044 53.6265 89.6761 53.684C89.7396 53.7053 89.8141 53.7071 89.8643 53.7589C89.9263 53.8231 89.9411 53.8948 90.0204 53.9499C90.3368 54.17 90.831 54.153 91.1114 53.8659C91.365 53.6062 91.299 53.1952 91.0872 52.9319C91.4244 52.7913 92.0386 52.6105 91.9046 52.085C92.6351 52.0365 94.4088 50.8512 93.4283 49.985C93.9664 49.6808 94.4608 48.9372 94.1151 48.2818C93.849 47.7771 93.23 47.5514 92.7222 47.5247" fill="#191847"/>
<path fill-rule="evenodd" clip-rule="evenodd" d="M99.4678 85.2896H84.1273L82.1171 109.923H104.953L99.4678 85.2896Z" fill="#C5CFD6"/>
<path fill-rule="evenodd" clip-rule="evenodd" d="M99.4678 85.2896H94.7497L91.9258 109.923H104.953L99.4678 85.2896Z" fill="black" fill-opacity="0.1"/>
<path fill-rule="evenodd" clip-rule="evenodd" d="M75.6986 90.1699C77.4225 93.8275 80.1162 102.706 80.1162 102.706L77.8294 103.752C77.8294 103.752 72.0269 94.4184 68.4808 88.0382C68.646 89.4745 68.8142 91.0916 68.9702 92.7914C69.3397 96.8183 68.9704 105.518 68.7716 108.032C68.6467 109.611 66.5015 109.28 66.3013 108.027C66.2674 107.815 66.1291 107.07 65.9229 105.959C64.9115 100.509 62.2647 86.2466 62.26 82.7543C62.2581 81.349 65.0023 80.0866 66.6378 81.0692C67.7613 79.8699 69.8876 79.1786 71.1091 81.1597C71.8857 82.4192 73.7308 85.9947 75.6986 90.1699Z" fill="#B28B67"/>
<path fill-rule="evenodd" clip-rule="evenodd" d="M79.9527 99.4192L72.1037 80.817C70.2234 77.791 64.9514 81.4328 65.5927 83.1879C67.0485 87.1726 74.4524 100.073 74.8861 101.26L79.9527 99.4192Z" fill="#1F28CF"/>
<path fill-rule="evenodd" clip-rule="evenodd" d="M78.9331 102.531C79.725 102.073 80.7488 101.681 81.2809 102.425C81.3044 102.458 81.3253 102.49 81.3428 102.52C81.6114 102.986 81.9716 103.968 81.9716 103.968C81.432 104.28 72.2723 109.57 72.2723 109.57C72.2723 109.57 71.1726 108.538 71.9297 107.968C72.6867 107.398 73.1791 107.006 73.1791 107.006L76.0426 103.059C76.3735 102.603 77.0156 102.51 77.4619 102.854L77.5044 102.887C77.5044 102.887 78.4616 102.803 78.9331 102.531V102.531Z" fill="#E4E4E4"/>
<path fill-rule="evenodd" clip-rule="evenodd" d="M67.5149 107.159C68.4293 107.159 69.5118 107.331 69.6011 108.241C69.605 108.282 69.6072 108.32 69.6072 108.355C69.6072 108.893 69.4282 109.924 69.4282 109.924C68.8051 109.924 58.2284 109.924 58.2284 109.924C58.2284 109.924 57.7918 108.48 58.7324 108.365C59.673 108.249 60.2951 108.157 60.2951 108.157L64.7474 106.171C65.2621 105.941 65.8647 106.182 66.0793 106.703L66.0997 106.753C66.0997 106.753 66.9705 107.159 67.5149 107.159V107.159Z" fill="#E4E4E4"/>
<path fill-rule="evenodd" clip-rule="evenodd" d="M61.7099 84.1836C61.7099 89.4614 64.2152 101.772 64.2168 102.935L69.6072 102.939C69.6072 102.939 68.4237 86.4612 68.7679 86.2837C69.112 86.1062 82.8765 87.6586 87.0047 87.6586C92.9576 87.6586 95.4202 83.903 95.62 76.9458H83.8276C81.4265 77.2028 68.9025 79.7301 64.2513 80.5988C62.26 80.9708 61.7099 82.7297 61.7099 84.1836Z" fill="#2B44FF"/>
<path fill-rule="evenodd" clip-rule="evenodd" d="M75.0981 60.7925L81.9905 64.5692L79.4452 67.3022L74.4371 62.7147C71.7988 61.9872 70.5923 61.4551 70.8175 61.1183C71.0075 60.8342 71.3138 60.8441 71.5959 60.8532C71.8157 60.8603 72.0208 60.8669 72.1448 60.7337C72.428 60.4296 71.8877 59.3663 71.3318 58.3792C70.7759 57.392 71.3703 57.478 71.7102 57.6199C72.8226 58.3733 73.9519 59.4309 75.0981 60.7925ZM68.1682 66.0917L71.1957 67.7556L71.0233 70.7952C71.0233 70.7952 69.0625 69.3793 67.3755 68.9087C65.2246 68.3087 64.3543 67.8505 63.3032 66.5106C62.7409 65.7937 62.2635 64.3526 62.7988 63.8833C63.0042 63.7032 63.7693 64.1286 64.5499 64.5625C65.1449 64.8933 65.7488 65.2291 66.121 65.3057C66.6219 65.4089 66.5632 64.7593 66.5164 64.2402C66.4827 63.8678 66.4552 63.5625 66.6448 63.6507C67.531 63.6659 68.1682 66.0917 68.1682 66.0917Z" fill="#997659"/>
<path fill-rule="evenodd" clip-rule="evenodd" d="M85.3471 63.7281C82.9329 63.7025 79.7137 63.1924 76.2787 61.011L74.9297 64.0207C77.2991 66.3732 80.6306 68.306 83.5437 68.2242C85.8393 68.1597 87.0126 65.3817 85.3471 63.7281Z" fill="#2026A2"/>
<path fill-rule="evenodd" clip-rule="evenodd" d="M91.8582 84.3475C94.1532 84.0482 96.2621 83.7731 97.5118 84.0192C98.914 79.4634 97.7497 76.5949 96.6748 73.9469C96.027 72.3509 95.4117 70.8351 95.4104 69.0781C95.4066 63.9617 91.3002 56.0864 90.696 56.0864H90.5226H85.7345H85.1863C84.94 59.2525 83.8887 62.6806 82.8306 66.1306C82.5835 66.9363 82.336 67.7432 82.0983 68.5482C78.0941 69.4576 69.2029 66.2923 69.2029 66.2923C69.2029 66.2923 66.9583 70.938 67.1277 72.9163C72.3029 75.6209 76.7385 76.8267 80.3929 76.9063C80.2768 79.0757 80.5407 81.1398 81.4273 83.0259C82.6153 85.5531 87.5628 84.9078 91.8582 84.3475Z" fill="#1F28CF"/>
<path fill-rule="evenodd" clip-rule="evenodd" d="M32.8691 36.1894C34.2337 37.0121 35.5744 37.4095 36.2038 37.2473C37.7819 36.8404 37.927 31.0656 36.7059 28.789C35.4848 26.5124 29.2074 25.5201 28.891 30.0308C28.7812 31.5963 29.4383 32.9934 30.4093 34.1334L28.6683 42.2503H33.7256L32.8691 36.1894Z" fill="#B28B67"/>
<path fill-rule="evenodd" clip-rule="evenodd" d="M38.9464 25.6331C38.8417 25.2649 38.56 24.9496 38.1804 24.8561C38.0883 24.8334 37.9933 24.8242 37.8985 24.8281C37.8645 24.8294 37.855 24.8392 37.8391 24.8155C37.8274 24.7978 37.8271 24.7548 37.8222 24.7341C37.8072 24.6697 37.7883 24.6061 37.765 24.5442C37.6856 24.3329 37.5521 24.1459 37.3912 23.9884C37.0902 23.6937 36.6835 23.4904 36.261 23.4536C36.0297 23.4334 35.8002 23.471 35.5816 23.5463C35.4684 23.5852 35.3586 23.6337 35.2517 23.6873C35.2195 23.7035 35.1151 23.7825 35.0828 23.7774C35.0471 23.7718 34.9755 23.6831 34.9464 23.6608C34.5879 23.3857 34.1452 23.2775 33.6986 23.2808C33.1946 23.2846 32.7092 23.3098 32.2888 23.6171C32.1998 23.6822 32.1151 23.7534 32.0344 23.8284C31.9919 23.8679 31.9507 23.9089 31.9115 23.9516C31.8878 23.9773 31.8647 24.0036 31.8425 24.0307C31.8049 24.0766 31.8109 24.0916 31.7582 24.0596C31.5559 23.9367 31.3214 23.8792 31.0853 23.9082C30.9451 23.9254 30.8086 23.9676 30.6791 24.023C30.635 24.0418 30.5329 24.1171 30.4859 24.1178C30.4393 24.1186 30.3386 24.0488 30.2906 24.0311C30.0311 23.9353 29.7515 23.9116 29.4788 23.9559C29.1975 24.0016 28.9212 24.1138 28.6828 24.269C28.5682 24.3436 28.4682 24.4263 28.3878 24.5372C28.3531 24.5851 28.3218 24.6358 28.2825 24.6802C28.2595 24.7062 28.2139 24.7329 28.2015 24.7658C28.2089 24.7461 27.8939 24.6247 27.8642 24.6169C27.7058 24.5755 27.5445 24.5839 27.3895 24.635C27.0978 24.731 26.847 24.9462 26.6409 25.1669C26.535 25.2803 26.4424 25.4056 26.3638 25.5391C26.3261 25.6031 26.2916 25.6688 26.2601 25.736C26.2448 25.7686 26.2347 25.8093 26.2145 25.8386C26.1886 25.8764 26.1712 25.8771 26.1242 25.8936C25.8855 25.9772 25.6679 26.1187 25.5023 26.31C25.3347 26.5036 25.2259 26.7419 25.1803 26.9928C25.1777 27.0076 25.1761 27.0689 25.1674 27.0769C25.1555 27.0879 25.1075 27.083 25.0894 27.0852C25.0265 27.0925 24.9641 27.1035 24.9025 27.1181C24.7889 27.145 24.6784 27.1846 24.5739 27.2363C24.1663 27.438 23.8749 27.8161 23.7323 28.2416C23.5826 28.6881 23.5852 29.1997 23.7641 29.6378C23.793 29.7086 23.8274 29.7773 23.8678 29.8423C23.8926 29.8822 23.9006 29.8823 23.8845 29.9242C23.8665 29.9707 23.8337 30.016 23.8124 30.0615C23.7429 30.2099 23.6943 30.3674 23.6636 30.5283C23.6132 30.7921 23.5883 31.0694 23.638 31.3352C23.661 31.4587 23.7012 31.5793 23.7626 31.6893C23.7938 31.7454 23.8304 31.7985 23.8717 31.8477C23.8932 31.8732 23.916 31.8976 23.9398 31.921C23.9534 31.9343 23.9713 31.946 23.9829 31.9609C24.0112 31.9973 24.0171 31.9674 24.0025 32.0208C23.9821 32.0954 23.9359 32.169 23.9076 32.2416C23.8784 32.3165 23.852 32.3923 23.8279 32.4689C23.7791 32.624 23.7378 32.782 23.712 32.9426C23.6624 33.251 23.6711 33.5796 23.8169 33.8627C23.8793 33.9838 23.9687 34.09 24.0773 34.1726C24.1304 34.213 24.1879 34.2479 24.2482 34.2765C24.2792 34.2912 24.3188 34.2975 24.333 34.3275C24.3482 34.3598 24.3256 34.4238 24.3204 34.4599C24.2756 34.7735 24.2531 35.1029 24.3463 35.4103C24.4322 35.6934 24.6212 35.9434 24.8667 36.1089C25.3428 36.43 25.9847 36.4119 26.485 36.1549C26.6154 36.0879 26.7374 36.0047 26.8462 35.9065C27.1234 36.2797 27.6937 36.2679 28.0988 36.1616C28.6034 36.0291 29.0083 35.6781 29.2416 35.217C29.5607 35.6054 30.2302 35.4794 30.4514 35.058C30.5055 34.9548 30.5376 34.8412 30.5535 34.7261C30.5618 34.6656 30.5565 34.6046 30.5627 34.5446C30.5707 34.4682 30.6218 34.3939 30.6511 34.3199C30.7083 34.1759 30.7438 34.0272 30.7453 33.8719C30.7461 33.7909 30.7358 33.7119 30.7281 33.6314C30.7212 33.559 30.7413 33.4916 30.7527 33.4201C30.6232 33.4415 30.4656 33.4065 30.3436 33.369C30.224 33.3322 30.1119 33.2352 30.0274 33.1466C29.8313 32.9408 29.7115 32.6711 29.6296 32.4027C29.4497 31.8135 29.5235 31.1066 30.1159 30.7833C30.3919 30.6326 31.2187 30.6331 31.5475 30.7076C31.8931 30.7859 32.2849 31.5487 32.3042 31.6204C32.3161 31.6648 32.3101 31.7197 32.3509 31.7493C32.4405 31.8143 32.5882 31.7015 32.6543 31.6458C32.7683 31.5497 32.8496 31.4218 32.92 31.2922C33.0735 31.0098 33.1972 30.707 33.2846 30.3979C33.352 30.1595 33.395 29.9138 33.4831 29.6815C33.5707 29.4504 33.7089 29.2438 33.9236 29.1129C34.1573 28.9705 34.4251 28.8955 34.6816 28.806C34.9358 28.7173 35.1857 28.6089 35.3827 28.4207C35.4261 28.3793 35.4681 28.3353 35.503 28.2866C35.5306 28.2481 35.5578 28.1745 35.5997 28.1501C35.6649 28.1121 35.7601 28.2108 35.8165 28.2466C36.0948 28.4234 36.3269 28.6699 36.5141 28.9392C36.7003 29.2071 36.8531 29.4648 36.9772 29.7639C37.0693 29.9857 37.1268 30.2698 37.2888 30.4516C37.3611 30.5327 37.8985 30.5818 38.0726 30.511C38.2467 30.4401 38.4418 30.2561 38.5002 30.1408C38.56 30.0227 38.5743 29.8931 38.5488 29.7639C38.5337 29.6879 38.503 29.6168 38.4863 29.5422C38.4721 29.4795 38.4593 29.4202 38.4288 29.3627C38.3709 29.2538 38.2721 29.1756 38.1529 29.1429C38.2769 29.0285 38.3797 28.8916 38.4508 28.7387C38.5247 28.5798 38.5873 28.3865 38.6051 28.2121C38.6195 28.0705 38.5972 27.9237 38.5197 27.802C38.4384 27.6743 38.2943 27.5909 38.1696 27.5113C38.3601 27.3623 38.523 27.181 38.657 26.9804C38.9176 26.5902 39.0787 26.0983 38.9464 25.6331Z" fill="#191847"/>
<path fill-rule="evenodd" clip-rule="evenodd" d="M26.9828 59.7449L37.1146 86.5611L44.2163 106.326H48.2657L38.5037 59.7449L26.9828 59.7449Z" fill="#1F28CF"/>
<path fill-rule="evenodd" clip-rule="evenodd" d="M24.4787 59.7449C24.3685 68.9461 24.4482 81.334 24.1916 81.9076C23.9349 82.4811 8.22848 94.9774 8.22848 94.9774L10.3157 98.5275C10.3157 98.5275 28.9629 86.4993 29.9162 84.8968C30.8696 83.2943 35.6591 68.5475 38.1511 59.7449H24.4787Z" fill="#2B44FF"/>
<path fill-rule="evenodd" clip-rule="evenodd" d="M4.55646 97.3664L8.08178 94.6827L10.9262 98.0734C11.2544 101.908 13.4646 106.674 13.4646 106.674L12.8189 107.216L7.6718 101.08L6.2338 98.7101L5.91095 98.981L4.55646 97.3664Z" fill="#191847"/>
<path fill-rule="evenodd" clip-rule="evenodd" d="M43.8405 110.12L44.0513 105.694L48.4764 105.694C51.6239 107.907 56.6946 109.277 56.6946 109.277V110.12H48.6872L45.9478 109.699V110.12H43.8405Z" fill="#191847"/>
<path fill-rule="evenodd" clip-rule="evenodd" d="M53.4249 50.244L45.105 51.3791L46.5977 55.1076L53.3486 52.4305C56.2585 52.7176 57.6655 52.6485 57.5698 52.2231C57.489 51.8644 57.1797 51.7561 56.8949 51.6564C56.6729 51.5787 56.4658 51.5062 56.3931 51.3245C56.227 50.9096 57.1729 50.0497 58.1051 49.2723C59.0374 48.495 58.4116 48.3519 58.0182 48.3634C56.6203 48.6912 55.0892 49.318 53.4249 50.244ZM12.9483 70.6856C13.5658 69.4325 18.969 53.3054 18.969 53.3054L23.5833 53.3227C23.5833 53.3227 15.9938 70.4062 15.6687 71.212C15.2465 72.2587 15.9638 73.7796 16.4501 74.8108C16.5254 74.9704 16.5951 75.1182 16.6542 75.2507C15.9793 75.5528 15.6552 75.1877 15.3134 74.8028C14.9273 74.368 14.5189 73.908 13.5573 74.3555C13.1858 74.5283 12.8343 74.7327 12.4908 74.9324C11.3044 75.6222 10.2146 76.2558 8.732 75.3408C8.49695 75.1957 8.23938 74.6495 8.86171 74.2227C10.4122 73.1593 12.6464 71.2982 12.9483 70.6856Z" fill="#997659"/>
<path fill-rule="evenodd" clip-rule="evenodd" d="M31.6081 38.6671L35.2209 38.9079C36.1107 46.9597 40.9572 52.0456 51.8083 50.3238L53.2499 60.6928C43.1079 62.0039 34.2134 57.9425 32.3905 46.946C31.9186 44.0994 31.546 41.137 31.6081 38.6671Z" fill="#AFB9C5"/>
<path fill-rule="evenodd" clip-rule="evenodd" d="M13.5813 68.5972C16.0896 55.2476 21.384 44.9196 29.4643 37.6133H29.811H29.8228L29.8257 37.6166L35.2996 38.8706C35.2996 45.4476 36.7624 50.3619 38.1688 55.0866C38.7762 57.1269 39.373 59.1318 39.8369 61.2201H25.0534C24.8452 63.6126 24.7173 66.0716 24.6506 68.5972H13.5813Z" fill="#C5CFD6"/>
<path fill-rule="evenodd" clip-rule="evenodd" d="M25.0534 61.2201C25.4774 56.3492 26.2345 51.7542 27.4861 47.4351C27.2117 52.054 27.1356 57.7841 28.0581 61.2201H25.0534Z" fill="black" fill-opacity="0.1"/>
</svg>
