<svg width="206" height="194" viewBox="0 0 206 194" fill="none" xmlns="http://www.w3.org/2000/svg">
<circle cx="104.104" cy="97" r="97" fill="#FFF1BF"/>
<path fill-rule="evenodd" clip-rule="evenodd" d="M154.334 40.1848C152.63 43.3633 152.832 51.4259 155.036 51.994C155.914 52.2206 157.786 51.6657 159.691 50.5171L158.495 58.9792H165.556L163.126 47.6463C164.481 46.0547 165.399 44.1041 165.246 41.9185C164.804 35.6208 156.039 37.0062 154.334 40.1848Z" fill="#B28B67"/>
<path fill-rule="evenodd" clip-rule="evenodd" d="M154.796 38.9522C154.857 38.5682 154.735 38.3797 156.279 37.2977C157.823 36.2156 160.315 34.9395 162.826 35.4949C166.084 36.2156 167.378 38.3653 168.634 39.4104C169.767 40.3525 170.903 40.4624 171.577 41.6314C172.25 42.8005 172.608 46.1637 172.023 47.5008C171.215 49.3453 169.622 49.8421 168.459 50.3735C166.465 51.2848 163.646 50.3223 163.577 50.1629C163.049 48.9295 160.206 45.4503 158.496 43.9885C157.238 42.9136 154.505 40.7548 154.796 38.9522Z" fill="#5C63AB"/>
<mask id="mask0_2_314" style="mask-type:luminance" maskUnits="userSpaceOnUse" x="154" y="35" width="19" height="16">
<path fill-rule="evenodd" clip-rule="evenodd" d="M154.796 38.9522C154.857 38.5682 154.735 38.3797 156.279 37.2977C157.823 36.2156 160.315 34.9395 162.826 35.4949C166.084 36.2156 167.378 38.3653 168.634 39.4104C169.767 40.3525 170.903 40.4624 171.577 41.6314C172.25 42.8005 172.608 46.1637 172.023 47.5008C171.215 49.3453 169.622 49.8421 168.459 50.3735C166.465 51.2848 163.646 50.3223 163.577 50.1629C163.049 48.9295 160.206 45.4503 158.496 43.9885C157.238 42.9136 154.505 40.7548 154.796 38.9522Z" fill="white"/>
</mask>
<g mask="url(#mask0_2_314)">
<path fill-rule="evenodd" clip-rule="evenodd" d="M164.487 47.8622C167.864 43.6971 168.658 38.6739 168.658 38.6739L169.675 39.3174C169.675 39.3174 168.424 44.8067 164.487 47.8622ZM163.203 50.1508C168.667 45.3485 169.97 39.9517 169.97 39.9517L171.146 40.2987C171.146 40.2987 169.525 46.3335 163.203 50.1508Z" fill="black" fill-opacity="0.2"/>
</g>
<path fill-rule="evenodd" clip-rule="evenodd" d="M167.322 83.4044L145.46 119.962L129.071 150.868H125.54L153.002 83.4044L167.322 83.4044Z" fill="#915B3C"/>
<path fill-rule="evenodd" clip-rule="evenodd" d="M128.962 149.607C130.113 149.394 131.429 149.761 131.661 150.909C131.699 151.098 131.723 151.272 131.723 151.414C131.723 152.21 131.458 153.737 131.458 153.737C130.534 153.737 114.864 153.737 114.864 153.737C114.864 153.737 114.217 151.598 115.611 151.428C117.004 151.257 117.926 151.12 117.926 151.12L124.975 147.976C125.49 147.747 126.092 147.988 126.307 148.509L126.526 149.04C126.526 149.04 127.816 149.642 128.623 149.642C128.725 149.642 128.84 149.629 128.962 149.607Z" fill="#E4E4E4"/>
<path fill-rule="evenodd" clip-rule="evenodd" d="M133.622 145.919L126.814 143.859C126.814 143.859 131.289 130.48 137.782 114.414C144.275 98.3472 151.729 83.4044 151.729 83.4044H170.957C170.957 83.4044 162.67 102.306 153.386 117.754C144.103 133.202 133.622 145.919 133.622 145.919Z" fill="#DB2721"/>
<path fill-rule="evenodd" clip-rule="evenodd" d="M168.758 83.4044C170.822 96.2509 174.801 112.664 175.177 113.17C175.427 113.508 184.441 116.529 202.217 122.234L201.455 125.347C180.256 122.288 169.086 119.914 167.945 118.227C166.233 115.695 157.687 95.6944 154.377 83.4044H168.758Z" fill="#915B3C"/>
<path fill-rule="evenodd" clip-rule="evenodd" d="M195.969 119.542L194.625 124.557C178.77 125.948 169.055 124.943 165.481 121.542C161.906 118.141 157.832 105.428 153.259 83.4044H171.594C174.492 101.439 176.111 110.835 176.454 111.592C176.796 112.349 183.301 114.999 195.969 119.542Z" fill="#FF4133"/>
<path fill-rule="evenodd" clip-rule="evenodd" d="M201.116 123.197C201.106 122.026 201.696 120.795 202.866 120.766C203.059 120.761 203.235 120.768 203.375 120.793C204.159 120.931 205.616 121.457 205.616 121.457C205.456 122.367 202.735 137.803 202.735 137.803C202.735 137.803 200.516 138.069 200.59 136.666C200.665 135.264 200.689 134.332 200.689 134.332L198.818 126.842C198.682 126.295 199.024 125.744 199.574 125.623L200.135 125.499C200.135 125.499 200.952 124.333 201.092 123.539C201.11 123.437 201.117 123.322 201.116 123.197Z" fill="#E4E4E4"/>
<path fill-rule="evenodd" clip-rule="evenodd" d="M145.63 87.3075C151.217 98.947 174.738 91.0879 174.738 91.0879C174.738 89.071 173.938 87.049 173.098 84.9253C172.198 82.6483 171.251 80.2544 171.194 77.6248C171.09 72.787 170.186 58.1294 166.412 53.178C166.343 52.9543 166.273 52.73 166.202 52.505L165.941 52.6279C165.9 52.5859 165.859 52.5449 165.818 52.505L157.583 53.7786C157.583 57.5043 155.199 61.0371 153.054 64.2174C152.531 64.9912 152.023 65.7441 151.567 66.4738C150.97 67.4297 150.295 68.4027 149.605 69.3997C146.105 74.449 142.178 80.1158 145.63 87.3075Z" fill="#C1DEE2"/>
<path fill-rule="evenodd" clip-rule="evenodd" d="M156.182 85.1074C155.631 82.2645 155.274 80.3666 155.11 79.4137C150.723 84.3725 148.189 86.8807 147.507 86.9382C146.224 87.0464 145.277 85.909 145.007 86.2288C144.561 87.553 145.821 90.8678 148.228 91.3498C149.378 91.58 151.157 89.2087 151.89 88.3685C152.178 88.038 153.609 86.951 156.182 85.1074V85.1074ZM148.604 69.9505C147.467 69.9505 146.856 70.4208 146.183 71.3697C145.511 72.3185 144.875 76.7933 145.954 76.7933C147.034 76.7933 151.557 75.0635 151.557 73.9006C151.557 72.7376 148.471 72.2451 148.471 71.3697C148.471 70.4942 149.741 69.9505 148.604 69.9505Z" fill="#B28B67"/>
<path fill-rule="evenodd" clip-rule="evenodd" d="M167.744 58.0135C170.632 70.0589 169.455 80.2181 158.478 89.4332C158.607 89.8962 158.685 90.1727 158.685 90.1727C171.57 81.165 171.576 70.249 167.744 58.0135Z" fill="black" fill-opacity="0.2"/>
<path fill-rule="evenodd" clip-rule="evenodd" d="M121.266 76.406C119.471 77.4882 117.708 78.0111 116.88 77.7976C114.804 77.2624 114.614 69.6658 116.219 66.671C117.825 63.6762 126.082 62.3709 126.498 68.3045C126.642 70.3639 125.778 72.2018 124.501 73.7014L126.791 84.379H120.139L121.266 76.406Z" fill="#B28B67"/>
<path fill-rule="evenodd" clip-rule="evenodd" d="M129.398 66.3294C129.612 66.1164 129.73 65.8124 129.831 65.5237C129.936 65.2238 130.039 64.9209 130.108 64.6087C130.248 63.9851 130.249 63.2679 129.805 62.7837C129.448 62.3953 128.913 62.2212 128.419 62.1833C128.09 62.1581 127.752 62.2042 127.437 62.3079C127.124 62.4108 126.854 62.6159 126.551 62.7432C126.539 62.0712 126.424 61.368 126.083 60.7941C125.755 60.242 125.232 59.9322 124.637 59.8502C124.026 59.7661 123.422 59.9092 122.875 60.2052C122.738 60.2793 122.602 60.357 122.473 60.4449C122.364 60.5185 122.251 60.6071 122.123 60.637C121.981 60.6705 121.91 60.5883 121.818 60.4844C121.71 60.3627 121.588 60.2555 121.458 60.1605C120.887 59.7403 120.137 59.5675 119.475 59.8194C119.17 59.9354 118.874 60.1325 118.667 60.4041C118.482 60.6461 118.351 61.0301 118.096 61.1988C117.988 61.2704 117.912 61.1755 117.813 61.1054C117.666 61.0001 117.525 60.8838 117.375 60.7814C117.165 60.6374 116.938 60.5297 116.694 60.4734C116.338 60.3908 115.845 60.4102 115.743 60.8773C115.705 61.0528 115.734 61.2405 115.747 61.4173C115.763 61.66 115.781 61.9027 115.802 62.1451C115.818 62.3291 115.838 62.5069 115.873 62.6876C115.892 62.784 115.95 62.9636 115.908 63.0601C115.857 63.1807 115.619 63.1121 115.517 63.1163C115.316 63.1246 115.114 63.1599 114.928 63.2458C114.784 63.3124 114.633 63.4103 114.572 63.5755C114.535 63.6769 114.544 63.7811 114.562 63.8855C114.583 64.0108 114.559 64.0772 114.543 64.2036C114.273 64.0706 113.338 63.7751 113.22 64.2591C113.181 64.4203 113.27 64.6024 113.338 64.7383C113.458 64.9766 113.614 65.1945 113.774 65.4023C114.108 65.8358 114.507 66.2096 114.936 66.5294C114.433 66.7528 114.302 67.4119 114.737 67.8046C114.929 67.978 115.187 68.0166 115.43 68.0055C115.518 68.0014 115.646 67.9673 115.716 67.9828C115.753 67.9911 115.794 68.0229 115.846 68.0265C116.187 68.0499 116.573 67.9675 116.908 67.8916C117.503 67.7563 118.067 67.4741 118.527 67.0442C118.645 66.9339 118.743 66.8704 118.902 66.872C119.041 66.8734 119.178 66.9116 119.317 66.9152C119.685 66.9246 120.017 66.7445 120.359 66.6246C120.38 67.0868 120.512 67.5958 120.701 68.0115C120.855 68.3506 121.177 68.3999 121.493 68.4296C122.504 68.5248 123.519 68.4186 124.531 68.42C123.551 68.6416 122.538 68.7329 121.567 68.9937C121.128 69.1116 121.463 69.4077 121.651 69.6129C121.96 69.9509 122.19 70.3696 122.349 70.8108C122.829 70.1856 123.676 69.7736 124.427 69.9657C125.257 70.1779 125.841 71.3002 125.31 72.107C125.002 72.5754 124.446 72.7563 123.983 72.9575C124.344 73.333 124.432 73.8876 124.649 74.3547C124.756 74.5851 124.907 74.8456 125.146 74.9258C125.235 74.9556 125.339 74.9581 125.409 75.0304C125.496 75.1199 125.516 75.22 125.627 75.297C126.068 75.6041 126.758 75.5804 127.149 75.1796C127.503 74.8172 127.411 74.2436 127.116 73.8761C127.586 73.6799 128.444 73.4275 128.257 72.6941C129.276 72.6264 131.752 70.9721 130.383 69.7632C131.134 69.3386 131.824 68.3008 131.342 67.386C130.97 66.6816 130.106 66.3667 129.398 66.3294" fill="#191847"/>
<path fill-rule="evenodd" clip-rule="evenodd" d="M138.812 119.037H117.402L114.596 153.418H146.468L138.812 119.037Z" fill="#C5CFD6"/>
<path fill-rule="evenodd" clip-rule="evenodd" d="M138.812 119.037H132.227L128.286 153.418H146.468L138.812 119.037Z" fill="black" fill-opacity="0.1"/>
<path fill-rule="evenodd" clip-rule="evenodd" d="M105.638 125.849C108.044 130.954 111.804 143.346 111.804 143.346L108.612 144.805C108.612 144.805 100.514 131.778 95.5643 122.874C95.7949 124.878 96.0297 127.135 96.2474 129.508C96.7631 135.128 96.2477 147.27 95.9703 150.778C95.7959 152.982 92.8019 152.521 92.5224 150.772C92.4751 150.476 92.2821 149.437 91.9943 147.885C90.5828 140.28 86.8886 120.373 86.8821 115.499C86.8794 113.538 90.7094 111.776 92.9921 113.147C94.5602 111.473 97.5278 110.508 99.2326 113.273C100.316 115.031 102.892 120.022 105.638 125.849Z" fill="#B28B67"/>
<path fill-rule="evenodd" clip-rule="evenodd" d="M111.575 138.758L100.621 112.795C97.9964 108.572 90.6384 113.655 91.5334 116.104C93.5652 121.666 103.899 139.67 104.504 141.327L111.575 138.758Z" fill="#1F28CF"/>
<path fill-rule="evenodd" clip-rule="evenodd" d="M110.314 142.991C111.245 142.281 112.562 141.896 113.309 142.798C113.394 142.9 113.464 142.997 113.516 143.086C113.89 143.735 114.393 145.106 114.393 145.106C113.64 145.541 100.856 152.925 100.856 152.925C100.856 152.925 99.3213 151.485 100.378 150.689C101.434 149.893 102.122 149.347 102.122 149.347L106.357 143.508C106.688 143.052 107.33 142.959 107.777 143.303L108.158 143.597C108.158 143.597 109.494 143.481 110.152 143.101C110.205 143.07 110.259 143.033 110.314 142.991Z" fill="#E4E4E4"/>
<path fill-rule="evenodd" clip-rule="evenodd" d="M94.4103 149.546C95.5719 149.397 96.9053 149.723 97.1014 150.878C97.1235 151.008 97.1363 151.127 97.1363 151.23C97.1363 151.98 96.8866 153.418 96.8866 153.418C96.0169 153.418 81.2552 153.418 81.2552 153.418C81.2552 153.418 80.6459 151.403 81.9587 151.242C83.2714 151.082 84.1397 150.952 84.1397 150.952L90.7256 148.015C91.2402 147.785 91.8428 148.026 92.0575 148.547L92.2411 148.993C92.2411 148.993 93.4564 149.56 94.2162 149.56C94.2767 149.56 94.3418 149.555 94.4103 149.546Z" fill="#E4E4E4"/>
<path fill-rule="evenodd" clip-rule="evenodd" d="M86.1143 117.494C86.1143 124.86 89.6109 142.042 89.6131 143.664L97.1363 143.67C97.1363 143.67 95.4846 120.673 95.9649 120.425C96.4453 120.177 115.656 122.344 121.418 122.344C129.726 122.344 133.163 117.102 133.442 107.392H116.984C113.632 107.751 96.1528 111.278 89.6612 112.491C86.882 113.01 86.1143 115.465 86.1143 117.494Z" fill="#2B44FF"/>
<path fill-rule="evenodd" clip-rule="evenodd" d="M104.8 84.8475L114.42 90.1184L110.867 93.9329L103.877 87.5301C100.195 86.5149 98.5113 85.7722 98.8257 85.3021C99.0907 84.9057 99.5182 84.9194 99.912 84.9321C100.219 84.942 100.505 84.9512 100.678 84.7653C101.073 84.3409 100.319 82.8569 99.5434 81.4792C98.7675 80.1015 99.5972 80.2214 100.072 80.4195C101.624 81.471 103.2 82.947 104.8 84.8475ZM95.128 92.2434L99.3535 94.5657L99.1129 98.808C99.1129 98.808 96.3762 96.8319 94.0217 96.1751C91.0197 95.3377 89.8051 94.6982 88.3381 92.8281C87.5532 91.8276 86.887 89.8162 87.6341 89.1611C87.9207 88.9099 88.9885 89.5035 90.0781 90.1092C90.9084 90.5708 91.7514 91.0394 92.2707 91.1464C92.9699 91.2904 92.888 90.3838 92.8226 89.6594C92.7757 89.1395 92.7372 88.7134 93.0018 88.8366C94.2387 88.8579 95.128 92.2434 95.128 92.2434Z" fill="#997659"/>
<path fill-rule="evenodd" clip-rule="evenodd" d="M119.104 88.9443C115.735 88.9086 111.242 88.1967 106.448 85.1522L104.565 89.3528C107.872 92.636 112.522 95.3337 116.587 95.2194C119.791 95.1294 121.429 91.2522 119.104 88.9443Z" fill="#2026A2"/>
<path fill-rule="evenodd" clip-rule="evenodd" d="M128.192 117.723C131.395 117.305 134.338 116.921 136.082 117.264C138.039 110.906 136.414 106.902 134.914 103.207C134.01 100.979 133.151 98.8635 133.15 96.4114C133.144 89.2705 127.413 78.2791 126.57 78.2791H126.328H119.645H118.88C118.536 82.698 117.069 87.4824 115.592 92.2976C115.247 93.4221 114.902 94.5483 114.57 95.6718C108.982 96.9409 96.5721 92.5232 96.5721 92.5232C96.5721 92.5232 93.4394 99.0072 93.6758 101.768C100.899 105.543 107.09 107.226 112.19 107.337C112.028 110.365 112.396 113.246 113.634 115.878C115.292 119.405 122.197 118.505 128.192 117.723Z" fill="#1F28CF"/>
<path fill-rule="evenodd" clip-rule="evenodd" d="M45.8612 50.5092C47.7657 51.6574 49.6369 52.2121 50.5153 51.9857C52.718 51.4178 52.9205 43.358 51.2162 40.1806C49.5119 37.0031 40.7506 35.6182 40.309 41.9137C40.1557 44.0987 41.0729 46.0486 42.4281 47.6397L39.9982 58.9684H47.0566L45.8612 50.5092Z" fill="#B28B67"/>
<path fill-rule="evenodd" clip-rule="evenodd" d="M54.3432 35.7757C54.197 35.2618 53.8039 34.8218 53.274 34.6913C53.1456 34.6596 53.0129 34.6468 52.8807 34.6521C52.8332 34.654 52.8199 34.6677 52.7978 34.6345C52.7813 34.61 52.781 34.5499 52.7742 34.521C52.7531 34.4311 52.7268 34.3423 52.6943 34.2559C52.5835 33.961 52.3972 33.7001 52.1726 33.4802C51.7525 33.069 51.1849 32.7851 50.5952 32.7338C50.2724 32.7057 49.952 32.7581 49.6469 32.8632C49.4889 32.9175 49.3358 32.9852 49.1866 33.0601C49.1416 33.0826 48.9959 33.1929 48.9508 33.1858C48.901 33.1779 48.801 33.0541 48.7605 33.0231C48.2601 32.6391 47.6422 32.4881 47.0189 32.4927C46.3154 32.4979 45.638 32.5331 45.0513 32.962C44.9271 33.0528 44.8088 33.1523 44.6962 33.257C44.6369 33.3121 44.5794 33.3693 44.5247 33.4288C44.4916 33.4648 44.4594 33.5015 44.4284 33.5392C44.3759 33.6033 44.3843 33.6243 44.3107 33.5796C44.0283 33.408 43.7011 33.3278 43.3715 33.3683C43.1758 33.3924 42.9854 33.4511 42.8046 33.5285C42.7431 33.5548 42.6006 33.6599 42.535 33.6609C42.4699 33.6619 42.3294 33.5645 42.2624 33.5398C41.9003 33.4061 41.51 33.3731 41.1294 33.4349C40.7368 33.4986 40.3511 33.6553 40.0185 33.8718C39.8585 33.976 39.7189 34.0914 39.6068 34.2462C39.5583 34.3131 39.5146 34.3838 39.4597 34.4458C39.4276 34.4821 39.364 34.5194 39.3467 34.5653C39.3571 34.5378 38.9174 34.3683 38.8759 34.3574C38.6548 34.2997 38.4298 34.3114 38.2133 34.3826C37.8063 34.5166 37.4563 34.8171 37.1686 35.1251C37.0209 35.2833 36.8916 35.4582 36.7818 35.6445C36.7292 35.7338 36.6811 35.8256 36.6371 35.9194C36.6158 35.9648 36.6016 36.0216 36.5735 36.0625C36.5373 36.1152 36.513 36.1162 36.4474 36.1392C36.1143 36.256 35.8106 36.4535 35.5794 36.7205C35.3455 36.9906 35.1937 37.3232 35.1301 37.6735C35.1264 37.6941 35.1241 37.7796 35.1121 37.7908C35.0955 37.8062 35.0285 37.7994 35.0032 37.8024C34.9154 37.8126 34.8283 37.828 34.7423 37.8483C34.5838 37.8858 34.4296 37.9411 34.2837 38.0133C33.7149 38.2948 33.3081 38.8225 33.109 39.4163C32.9002 40.0395 32.9039 40.7535 33.1535 41.3651C33.1938 41.4639 33.2418 41.5597 33.2982 41.6504C33.3328 41.7061 33.344 41.7062 33.3215 41.7647C33.2964 41.8297 33.2507 41.8928 33.221 41.9563C33.1239 42.1635 33.0561 42.3833 33.0132 42.6078C32.9429 42.9761 32.9081 43.3631 32.9774 43.7341C33.0096 43.9064 33.0658 44.0748 33.1513 44.2283C33.195 44.3065 33.2461 44.3807 33.3037 44.4493C33.3337 44.485 33.3654 44.519 33.3987 44.5516C33.4177 44.5703 33.4427 44.5866 33.4588 44.6074C33.4983 44.6581 33.5066 44.6164 33.4862 44.6909C33.4578 44.795 33.3933 44.8978 33.3537 44.9991C33.313 45.1036 33.2762 45.2094 33.2426 45.3164C33.1744 45.5329 33.1168 45.7533 33.0807 45.9775C33.0115 46.4079 33.0237 46.8666 33.2272 47.2616C33.3142 47.4306 33.4391 47.5788 33.5905 47.6941C33.6647 47.7506 33.7449 47.7992 33.8292 47.8391C33.8724 47.8597 33.9277 47.8685 33.9474 47.9103C33.9687 47.9554 33.9371 48.0448 33.9299 48.0951C33.8674 48.5329 33.836 48.9926 33.9661 49.4216C34.0859 49.8168 34.3498 50.1657 34.6923 50.3967C35.3569 50.8448 36.2527 50.8195 36.951 50.4608C37.133 50.3673 37.3033 50.2511 37.4552 50.1142C37.842 50.635 38.638 50.6186 39.2033 50.4701C39.9076 50.2853 40.4728 49.7954 40.7984 49.1518C41.2436 49.6939 42.1781 49.518 42.4868 48.9299C42.5624 48.7859 42.6072 48.6273 42.6293 48.4667C42.6409 48.3823 42.6335 48.2971 42.6422 48.2134C42.6533 48.1067 42.7246 48.003 42.7656 47.8997C42.8454 47.6988 42.8949 47.4913 42.897 47.2745C42.8981 47.1614 42.8838 47.0511 42.873 46.9389C42.8634 46.8378 42.8914 46.7437 42.9073 46.644C42.7267 46.6737 42.5066 46.625 42.3364 46.5726C42.1694 46.5212 42.013 46.3858 41.8951 46.2621C41.6214 45.975 41.4542 45.5985 41.3398 45.2239C41.0888 44.4016 41.1917 43.415 42.0186 42.9637C42.4038 42.7535 43.5578 42.7542 44.0166 42.8581C44.499 42.9673 45.0459 44.032 45.0728 44.1321C45.0894 44.194 45.0811 44.2707 45.1379 44.312C45.263 44.4027 45.4691 44.2452 45.5613 44.1675C45.7204 44.0334 45.8339 43.8549 45.9322 43.674C46.1464 43.2799 46.3191 42.8573 46.4411 42.4258C46.5351 42.0932 46.5952 41.7502 46.7181 41.426C46.8404 41.1035 47.0332 40.8152 47.333 40.6324C47.659 40.4337 48.0328 40.329 48.3908 40.2041C48.7456 40.0803 49.0944 39.929 49.3694 39.6663C49.4299 39.6085 49.4886 39.5471 49.5373 39.4791C49.5757 39.4254 49.6137 39.3227 49.6723 39.2886C49.7633 39.2357 49.8961 39.3734 49.9749 39.4234C50.3632 39.6701 50.6872 40.0142 50.9485 40.39C51.2084 40.7638 51.4216 41.1235 51.5949 41.541C51.7234 41.8506 51.8036 42.247 52.0296 42.5008C52.1305 42.6141 52.8807 42.6826 53.1236 42.5837C53.3666 42.4848 53.6389 42.228 53.7205 42.067C53.8039 41.9023 53.8239 41.7213 53.7882 41.541C53.7672 41.4349 53.7244 41.3358 53.7009 41.2316C53.6812 41.144 53.6633 41.0613 53.6207 40.9811C53.54 40.8291 53.402 40.7199 53.2357 40.6742C53.4088 40.5146 53.5522 40.3236 53.6515 40.1101C53.7546 39.8884 53.842 39.6187 53.8668 39.3752C53.887 39.1775 53.8559 38.9727 53.7477 38.8028C53.6341 38.6245 53.433 38.5082 53.2591 38.3971C53.5248 38.1891 53.7523 37.9361 53.9393 37.6561C54.3029 37.1115 54.5279 36.425 54.3432 35.7757Z" fill="#191847"/>
<path fill-rule="evenodd" clip-rule="evenodd" d="M37.645 83.3849L51.7859 120.812L61.6976 148.398H67.3493L53.7246 83.3849L37.645 83.3849Z" fill="#1F28CF"/>
<path fill-rule="evenodd" clip-rule="evenodd" d="M34.1501 83.3849C33.9964 96.2269 34.1075 113.517 33.7494 114.317C33.3912 115.118 11.47 132.558 11.47 132.558L14.383 137.513C14.383 137.513 40.4086 120.726 41.7392 118.489C43.0698 116.252 49.7545 95.6706 53.2324 83.3849H34.1501Z" fill="#2B44FF"/>
<path fill-rule="evenodd" clip-rule="evenodd" d="M6.34496 135.893L11.2652 132.147L15.2351 136.879C15.6932 142.231 18.7779 148.883 18.7779 148.883L17.8767 149.639L10.693 141.076L8.686 137.768L8.23541 138.146L6.34496 135.893Z" fill="#191847"/>
<path fill-rule="evenodd" clip-rule="evenodd" d="M61.1731 153.693L61.4672 147.515L67.6434 147.515C72.0362 150.604 79.1133 152.516 79.1133 152.516V153.693H67.9375L64.1141 153.104V153.693H61.1731Z" fill="#191847"/>
<path fill-rule="evenodd" clip-rule="evenodd" d="M74.5493 70.125L62.9373 71.7093L65.0207 76.9131L74.4428 73.1767C78.5041 73.5774 80.4679 73.481 80.3342 72.8872C80.2215 72.3866 79.7899 72.2355 79.3923 72.0963C79.0825 71.9878 78.7934 71.8866 78.6919 71.6331C78.4601 71.054 79.7803 69.8538 81.0814 68.7689C82.3825 67.6839 81.5091 67.4843 80.9601 67.5003C79.0091 67.9578 76.8722 68.8327 74.5493 70.125ZM18.0568 98.655C18.9187 96.9061 26.4598 74.3978 26.4598 74.3978L32.8999 74.422C32.8999 74.422 22.3073 98.2651 21.8537 99.3897C21.2643 100.851 22.2654 102.973 22.9442 104.413C23.0493 104.635 23.1466 104.842 23.2291 105.027C22.2872 105.448 21.8347 104.939 21.3577 104.401C20.8189 103.795 20.2488 103.152 18.9068 103.777C18.3883 104.018 17.8976 104.304 17.4183 104.582C15.7625 105.545 14.2414 106.429 12.1722 105.152C11.8441 104.95 11.4846 104.187 12.3532 103.592C14.5171 102.108 17.6355 99.51 18.0568 98.655Z" fill="#997659"/>
<path fill-rule="evenodd" clip-rule="evenodd" d="M44.0999 53.9674L49.1423 54.3034C50.3841 65.5412 57.1484 72.6395 72.293 70.2365L74.3051 84.7083C60.1501 86.5381 47.7361 80.8697 45.1919 65.5221C44.5333 61.5492 44.0133 57.4145 44.0999 53.9674Z" fill="#AFB9C5"/>
<path fill-rule="evenodd" clip-rule="evenodd" d="M18.9402 95.7403C22.4411 77.1084 29.8304 62.6938 41.1079 52.4965H41.5918H41.6083L41.6123 52.5012L49.2521 54.2514C49.2521 63.4308 51.2938 70.2896 53.2567 76.8837C54.1043 79.7313 54.9373 82.5296 55.5848 85.4441H34.9517C34.6611 88.7833 34.4826 92.2153 34.3896 95.7403H18.9402Z" fill="#C5CFD6"/>
<path fill-rule="evenodd" clip-rule="evenodd" d="M34.9517 85.4442C35.5434 78.6459 36.6001 72.2327 38.3469 66.2045C37.964 72.6511 37.8578 80.6485 39.1452 85.4442H34.9517Z" fill="black" fill-opacity="0.1"/>
</svg>
