<svg width="195" height="194" viewBox="0 0 195 194" fill="none" xmlns="http://www.w3.org/2000/svg">
<ellipse cx="98.2456" cy="97" rx="91.5413" ry="97" fill="#AADDC7"/>
<path fill-rule="evenodd" clip-rule="evenodd" d="M145.649 40.1847C144.04 43.3633 144.232 51.4259 146.311 51.994C147.14 52.2206 148.907 51.6656 150.705 50.5171L149.576 58.9792H156.24L153.946 47.6463C155.225 46.0547 156.091 44.1041 155.946 41.9185C155.529 35.6208 147.258 37.0062 145.649 40.1847Z" fill="#B28B67"/>
<path fill-rule="evenodd" clip-rule="evenodd" d="M146.084 38.9522C146.143 38.5682 146.027 38.3797 147.484 37.2977C148.941 36.2156 151.293 34.9395 153.663 35.4949C156.737 36.2156 157.959 38.3653 159.144 39.4104C160.213 40.3525 161.286 40.4624 161.921 41.6314C162.557 42.8005 162.895 46.1637 162.342 47.5008C161.58 49.3453 160.077 49.8421 158.979 50.3735C157.097 51.2848 154.437 50.3223 154.372 50.1629C153.874 48.9295 151.19 45.4503 149.576 43.9885C148.389 42.9136 145.81 40.7548 146.084 38.9522Z" fill="#5C63AB"/>
<mask id="mask0_1_223" style="mask-type:luminance" maskUnits="userSpaceOnUse" x="146" y="35" width="17" height="16">
<path fill-rule="evenodd" clip-rule="evenodd" d="M146.084 38.9522C146.143 38.5682 146.027 38.3797 147.484 37.2977C148.941 36.2156 151.293 34.9395 153.663 35.4949C156.737 36.2156 157.959 38.3653 159.144 39.4104C160.213 40.3525 161.286 40.4624 161.921 41.6314C162.557 42.8005 162.895 46.1637 162.342 47.5008C161.58 49.3453 160.077 49.8421 158.979 50.3735C157.097 51.2848 154.437 50.3223 154.372 50.1629C153.874 48.9295 151.19 45.4503 149.576 43.9885C148.389 42.9136 145.81 40.7548 146.084 38.9522Z" fill="white"/>
</mask>
<g mask="url(#mask0_1_223)">
<path fill-rule="evenodd" clip-rule="evenodd" d="M155.231 47.8622C158.417 43.6971 159.167 38.6739 159.167 38.6739L160.127 39.3174C160.127 39.3174 158.946 44.8067 155.231 47.8622ZM154.019 50.1508C159.175 45.3485 160.405 39.9517 160.405 39.9517L161.515 40.2987C161.515 40.2987 159.985 46.3335 154.019 50.1508Z" fill="black" fill-opacity="0.2"/>
</g>
<path fill-rule="evenodd" clip-rule="evenodd" d="M157.906 83.4044L137.274 119.962L121.807 150.868H118.476L144.391 83.4044L157.906 83.4044Z" fill="#915B3C"/>
<path fill-rule="evenodd" clip-rule="evenodd" d="M121.502 149.636C122.703 149.527 124.073 149.827 124.271 151.017C124.296 151.164 124.31 151.299 124.31 151.414C124.31 152.21 124.06 153.737 124.06 153.737C123.189 153.737 108.4 153.737 108.4 153.737C108.4 153.737 107.789 151.598 109.105 151.428C110.42 151.257 111.29 151.12 111.29 151.12L117.859 148.016C118.383 147.768 119.008 148.017 119.218 148.557L119.406 149.04C119.406 149.04 120.623 149.642 121.385 149.642C121.422 149.642 121.461 149.64 121.502 149.636Z" fill="#E4E4E4"/>
<path fill-rule="evenodd" clip-rule="evenodd" d="M126.103 145.919L119.678 143.859C119.678 143.859 123.9 130.48 130.028 114.414C136.156 98.3472 143.19 83.4044 143.19 83.4044H161.336C161.336 83.4044 153.516 102.306 144.754 117.754C135.993 133.202 126.103 145.919 126.103 145.919Z" fill="#DB2721"/>
<path fill-rule="evenodd" clip-rule="evenodd" d="M159.261 83.4044C161.209 96.2509 164.964 112.664 165.319 113.17C165.555 113.508 174.061 116.529 190.838 122.234L190.118 125.347C170.112 122.288 159.571 119.914 158.494 118.227C156.879 115.695 148.813 95.6944 145.689 83.4044H159.261Z" fill="#915B3C"/>
<path fill-rule="evenodd" clip-rule="evenodd" d="M184.94 119.542L183.673 124.557C168.71 125.948 159.541 124.943 156.168 121.542C152.795 118.141 148.95 105.428 144.634 83.4044H161.938C164.672 101.439 166.201 110.835 166.524 111.592C166.847 112.349 172.986 114.999 184.94 119.542Z" fill="#FF4133"/>
<path fill-rule="evenodd" clip-rule="evenodd" d="M189.797 123.127C189.763 121.985 190.336 120.791 191.469 120.765C191.644 120.761 191.802 120.769 191.93 120.793C192.67 120.931 194.045 121.457 194.045 121.457C193.894 122.367 191.326 137.803 191.326 137.803C191.326 137.803 189.232 138.069 189.302 136.666C189.372 135.264 189.396 134.332 189.396 134.332L187.623 126.813C187.497 126.276 187.821 125.744 188.351 125.621L188.873 125.499C188.873 125.499 189.643 124.333 189.776 123.539C189.796 123.419 189.801 123.279 189.797 123.127Z" fill="#E4E4E4"/>
<path fill-rule="evenodd" clip-rule="evenodd" d="M137.435 87.3075C142.708 98.947 164.905 91.0879 164.905 91.0879C164.905 89.071 164.15 87.049 163.357 84.9253C162.507 82.6483 161.614 80.2544 161.56 77.6248C161.462 72.787 160.609 58.1294 157.047 53.178C156.982 52.9543 156.916 52.73 156.849 52.505L156.603 52.6279C156.564 52.5859 156.526 52.5449 156.487 52.505L148.715 53.7786C148.715 57.5043 146.465 61.0371 144.44 64.2174C143.948 64.9912 143.468 65.7441 143.038 66.4738C142.474 67.4297 141.838 68.4027 141.186 69.3997C137.883 74.449 134.177 80.1158 137.435 87.3075Z" fill="#C1DEE2"/>
<path fill-rule="evenodd" clip-rule="evenodd" d="M147.393 85.1074C146.873 82.2645 146.536 80.3666 146.381 79.4137C142.241 84.3725 139.849 86.8807 139.206 86.9382C137.996 87.0464 137.101 85.909 136.847 86.2288C136.426 87.553 137.615 90.8678 139.887 91.3498C140.972 91.58 142.65 89.2087 143.342 88.3685C143.614 88.038 144.965 86.951 147.393 85.1074V85.1074ZM140.241 69.9505C139.168 69.9505 138.591 70.4208 137.957 71.3697C137.322 72.3185 136.722 76.7933 137.741 76.7933C138.759 76.7933 143.028 75.0635 143.028 73.9006C143.028 72.7376 140.115 72.2451 140.115 71.3697C140.115 70.4942 141.314 69.9505 140.241 69.9505Z" fill="#B28B67"/>
<path fill-rule="evenodd" clip-rule="evenodd" d="M158.304 58.0135C161.03 70.0589 159.919 80.2181 149.56 89.4332C149.682 89.8962 149.755 90.1727 149.755 90.1727C161.915 81.165 161.92 70.249 158.304 58.0135Z" fill="black" fill-opacity="0.2"/>
<path fill-rule="evenodd" clip-rule="evenodd" d="M114.441 76.406C112.748 77.4882 111.084 78.0111 110.303 77.7976C108.344 77.2623 108.164 69.6658 109.679 66.671C111.195 63.6762 118.986 62.3709 119.379 68.3045C119.515 70.3639 118.7 72.2018 117.495 73.7014L119.655 84.379H113.378L114.441 76.406Z" fill="#B28B67"/>
<path fill-rule="evenodd" clip-rule="evenodd" d="M122.116 66.3294C122.319 66.1164 122.429 65.8124 122.525 65.5237C122.624 65.2238 122.721 64.9209 122.787 64.6087C122.918 63.9851 122.92 63.2679 122.5 62.7836C122.163 62.3953 121.658 62.2212 121.192 62.1833C120.882 62.1581 120.563 62.2042 120.265 62.3079C119.97 62.4108 119.715 62.6159 119.429 62.7432C119.418 62.0711 119.309 61.3679 118.988 60.7941C118.678 60.242 118.185 59.9322 117.623 59.8502C117.046 59.7661 116.477 59.9091 115.96 60.2052C115.831 60.2793 115.703 60.357 115.58 60.4449C115.478 60.5185 115.371 60.6071 115.251 60.637C115.116 60.6705 115.05 60.5883 114.963 60.4844C114.86 60.3627 114.745 60.2555 114.623 60.1605C114.084 59.7403 113.376 59.5675 112.752 59.8194C112.464 59.9354 112.184 60.1325 111.989 60.404C111.815 60.6461 111.69 61.0301 111.45 61.1988C111.348 61.2704 111.276 61.1755 111.183 61.1054C111.044 61.0001 110.911 60.8838 110.77 60.7814C110.572 60.6374 110.357 60.5297 110.127 60.4734C109.791 60.3908 109.326 60.4102 109.23 60.8773C109.194 61.0528 109.221 61.2405 109.233 61.4172C109.249 61.66 109.266 61.9027 109.285 62.1451C109.301 62.3291 109.32 62.5069 109.352 62.6876C109.37 62.784 109.425 62.9636 109.386 63.0601C109.337 63.1807 109.112 63.1121 109.016 63.1163C108.826 63.1246 108.636 63.1599 108.461 63.2458C108.325 63.3124 108.182 63.4103 108.124 63.5755C108.089 63.6769 108.098 63.7811 108.115 63.8855C108.135 64.0108 108.112 64.0772 108.097 64.2036C107.843 64.0706 106.96 63.7751 106.849 64.2591C106.812 64.4203 106.896 64.6024 106.96 64.7383C107.073 64.9766 107.221 65.1945 107.372 65.4023C107.687 65.8358 108.063 66.2096 108.468 66.5294C107.993 66.7528 107.87 67.4119 108.28 67.8046C108.461 67.9779 108.705 68.0165 108.934 68.0055C109.017 68.0014 109.138 67.9673 109.204 67.9827C109.239 67.9911 109.277 68.0229 109.326 68.0264C109.649 68.0499 110.013 67.9675 110.329 67.8916C110.891 67.7563 111.423 67.474 111.857 67.0441C111.969 66.9339 112.061 66.8704 112.211 66.872C112.342 66.8734 112.471 66.9116 112.603 66.9152C112.95 66.9246 113.263 66.7445 113.586 66.6246C113.606 67.0867 113.73 67.5957 113.908 68.0115C114.054 68.3506 114.357 68.3998 114.656 68.4296C115.61 68.5248 116.568 68.4186 117.523 68.42C116.598 68.6416 115.643 68.7329 114.726 68.9937C114.311 69.1116 114.628 69.4077 114.805 69.6129C115.097 69.9509 115.314 70.3696 115.464 70.8108C115.917 70.1856 116.716 69.7736 117.425 69.9657C118.208 70.1779 118.759 71.3002 118.258 72.107C117.968 72.5754 117.443 72.7562 117.006 72.9575C117.347 73.333 117.429 73.8876 117.634 74.3547C117.736 74.5851 117.877 74.8456 118.104 74.9258C118.187 74.9556 118.285 74.9581 118.351 75.0304C118.433 75.1199 118.453 75.22 118.557 75.297C118.974 75.6041 119.625 75.5804 119.994 75.1796C120.328 74.8172 120.241 74.2436 119.962 73.8761C120.406 73.6799 121.215 73.4275 121.039 72.6941C122.001 72.6264 124.337 70.9721 123.046 69.7632C123.755 69.3386 124.406 68.3008 123.95 67.386C123.6 66.6816 122.785 66.3667 122.116 66.3294" fill="#191847"/>
<path fill-rule="evenodd" clip-rule="evenodd" d="M131.001 119.037H110.795L108.147 153.418H138.225L131.001 119.037Z" fill="#C5CFD6"/>
<path fill-rule="evenodd" clip-rule="evenodd" d="M131.001 119.037H124.786L121.067 153.418H138.225L131.001 119.037Z" fill="black" fill-opacity="0.1"/>
<path fill-rule="evenodd" clip-rule="evenodd" d="M99.6934 125.849C101.964 130.954 105.512 143.346 105.512 143.346L102.5 144.805C102.5 144.805 94.8571 131.778 90.1864 122.874C90.404 124.878 90.6256 127.135 90.8311 129.508C91.3177 135.128 90.8313 147.27 90.5695 150.778C90.405 152.982 87.5795 152.521 87.3157 150.772C87.271 150.476 87.089 149.437 86.8173 147.885C85.4852 140.279 81.9989 120.373 81.9928 115.499C81.9903 113.538 85.6047 111.776 87.759 113.147C89.2388 111.473 92.0394 110.508 93.6483 113.273C94.6712 115.031 97.1015 120.022 99.6934 125.849Z" fill="#B28B67"/>
<path fill-rule="evenodd" clip-rule="evenodd" d="M105.297 138.758L94.9583 112.795C92.4817 108.572 85.5377 113.655 86.3823 116.104C88.2998 121.666 98.0518 139.67 98.6231 141.327L105.297 138.758Z" fill="#1F28CF"/>
<path fill-rule="evenodd" clip-rule="evenodd" d="M104 143.071C104.986 142.402 106.281 141.916 106.983 142.865C107.041 142.942 107.09 143.017 107.128 143.086C107.481 143.735 107.956 145.106 107.956 145.106C107.245 145.541 95.1804 152.925 95.1804 152.925C95.1804 152.925 93.732 151.485 94.7291 150.689C95.7262 149.893 96.3748 149.347 96.3748 149.347L100.338 143.559C100.667 143.078 101.307 142.973 101.742 143.328L102.072 143.597C102.072 143.597 103.333 143.481 103.954 143.101C103.969 143.091 103.984 143.081 104 143.071Z" fill="#E4E4E4"/>
<path fill-rule="evenodd" clip-rule="evenodd" d="M88.9142 149.56C90.1093 149.56 91.4918 149.78 91.6499 150.965C91.6628 151.061 91.67 151.151 91.67 151.23C91.67 151.98 91.4343 153.418 91.4343 153.418C90.6136 153.418 76.6826 153.418 76.6826 153.418C76.6826 153.418 76.1076 151.403 77.3465 151.242C78.5853 151.082 79.4048 150.952 79.4048 150.952L85.5367 148.054C86.0611 147.807 86.6857 148.055 86.8959 148.596L87.0503 148.993C87.0503 148.993 88.1971 149.56 88.9142 149.56V149.56Z" fill="#E4E4E4"/>
<path fill-rule="evenodd" clip-rule="evenodd" d="M81.2682 117.494C81.2682 124.86 84.5681 142.042 84.5702 143.664L91.67 143.67C91.67 143.67 90.1112 120.673 90.5645 120.425C91.0178 120.177 109.148 122.344 114.585 122.344C122.426 122.344 125.669 117.102 125.933 107.392H110.4C107.238 107.751 90.7418 111.278 84.6155 112.491C81.9928 113.01 81.2682 115.465 81.2682 117.494Z" fill="#2B44FF"/>
<path fill-rule="evenodd" clip-rule="evenodd" d="M98.9023 84.8475L107.981 90.1184L104.628 93.9329L98.0317 87.5301C94.5567 86.5149 92.9676 85.7722 93.2642 85.3021C93.5144 84.9057 93.9178 84.9194 94.2895 84.9321C94.579 84.942 94.8491 84.9512 95.0125 84.7654C95.3855 84.3409 94.6738 82.8569 93.9416 81.4792C93.2094 80.1015 93.9923 80.2214 94.44 80.4195C95.9052 81.471 97.3927 82.947 98.9023 84.8475ZM89.7747 92.2434L93.7624 94.5657L93.5353 98.808C93.5353 98.808 90.9526 96.8319 88.7306 96.1751C85.8975 95.3377 84.7513 94.6982 83.3668 92.8281C82.6261 91.8276 81.9974 89.8162 82.7025 89.1611C82.973 88.9099 83.9807 89.5035 85.0089 90.1092C85.7925 90.5708 86.5881 91.0395 87.0782 91.1464C87.738 91.2904 87.6607 90.3838 87.599 89.6594C87.5547 89.1395 87.5184 88.7134 87.7682 88.8366C88.9354 88.8579 89.7747 92.2434 89.7747 92.2434Z" fill="#997659"/>
<path fill-rule="evenodd" clip-rule="evenodd" d="M112.402 88.9443C109.222 88.9086 104.982 88.1967 100.457 85.1522L98.6805 89.3528C101.801 92.636 106.189 95.3337 110.026 95.2194C113.05 95.1294 114.595 91.2522 112.402 88.9443Z" fill="#2026A2"/>
<path fill-rule="evenodd" clip-rule="evenodd" d="M120.978 117.723C124.001 117.305 126.778 116.921 128.424 117.264C130.271 110.906 128.738 106.902 127.322 103.207C126.469 100.979 125.658 98.8635 125.657 96.4114C125.652 89.2705 120.243 78.2791 119.447 78.2791H119.219H112.912H112.19C111.866 82.698 110.481 87.4824 109.087 92.2976C108.762 93.4221 108.436 94.5483 108.123 95.6718C102.849 96.941 91.1375 92.5232 91.1375 92.5232C91.1375 92.5232 88.1811 99.0072 88.4042 101.768C95.2207 105.543 101.063 107.226 105.876 107.337C105.723 110.365 106.071 113.246 107.239 115.878C108.804 119.405 115.32 118.505 120.978 117.723Z" fill="#1F28CF"/>
<path fill-rule="evenodd" clip-rule="evenodd" d="M43.2804 50.5092C45.0777 51.6574 46.8436 52.2121 47.6726 51.9857C49.7513 51.4178 49.9424 43.358 48.334 40.1806C46.7257 37.0031 38.4574 35.6182 38.0406 41.9137C37.896 44.0987 38.7616 46.0486 40.0405 47.6397L37.7473 58.9684H44.4085L43.2804 50.5092Z" fill="#B28B67"/>
<path fill-rule="evenodd" clip-rule="evenodd" d="M51.285 35.7757C51.1471 35.2618 50.7761 34.8218 50.2761 34.6913C50.1548 34.6596 50.0296 34.6468 49.9048 34.6521C49.8601 34.654 49.8475 34.6677 49.8266 34.6345C49.8111 34.61 49.8107 34.5499 49.8044 34.521C49.7845 34.4311 49.7596 34.3423 49.729 34.2559C49.6243 33.961 49.4485 33.7001 49.2366 33.4802C48.8401 33.069 48.3045 32.7851 47.748 32.7338C47.4434 32.7057 47.141 32.7581 46.853 32.8632C46.704 32.9175 46.5594 32.9852 46.4186 33.0601C46.3762 33.0826 46.2387 33.1929 46.1961 33.1858C46.1491 33.1779 46.0547 33.0541 46.0165 33.0231C45.5443 32.6391 44.9612 32.4881 44.373 32.4927C43.7091 32.4979 43.0698 32.5331 42.5161 32.962C42.3989 33.0528 42.2872 33.1523 42.1809 33.257C42.125 33.3121 42.0708 33.3693 42.019 33.4288C41.9879 33.4648 41.9575 33.5015 41.9282 33.5392C41.8786 33.6033 41.8866 33.6243 41.8171 33.5796C41.5507 33.408 41.2419 33.3278 40.9308 33.3683C40.7461 33.3924 40.5664 33.4511 40.3958 33.5285C40.3377 33.5548 40.2033 33.6599 40.1414 33.6609C40.0799 33.6619 39.9473 33.5645 39.8841 33.5398C39.5423 33.4061 39.174 33.3731 38.8148 33.4349C38.4443 33.4986 38.0804 33.6553 37.7664 33.8718C37.6154 33.976 37.4837 34.0914 37.3779 34.2462C37.3322 34.3131 37.2909 34.3838 37.2391 34.4458C37.2088 34.4821 37.1488 34.5194 37.1325 34.5653C37.1423 34.5378 36.7273 34.3683 36.6882 34.3574C36.4796 34.2997 36.2672 34.3114 36.0629 34.3826C35.6788 34.5166 35.3484 34.8171 35.077 35.1251C34.9375 35.2833 34.8155 35.4582 34.7119 35.6445C34.6623 35.7338 34.6169 35.8256 34.5753 35.9194C34.5552 35.9648 34.5419 36.0216 34.5154 36.0625C34.4812 36.1152 34.4582 36.1162 34.3963 36.1392C34.082 36.256 33.7954 36.4535 33.5772 36.7205C33.3564 36.9906 33.2132 37.3232 33.1532 37.6735C33.1496 37.6941 33.1475 37.7796 33.1361 37.7908C33.1205 37.8062 33.0573 37.7994 33.0334 37.8024C32.9506 37.8126 32.8683 37.828 32.7872 37.8483C32.6377 37.8858 32.4921 37.9411 32.3544 38.0133C31.8176 38.2948 31.4337 38.8225 31.2458 39.4163C31.0487 40.0395 31.0522 40.7535 31.2878 41.3651C31.3259 41.4639 31.3712 41.5597 31.4244 41.6504C31.457 41.7061 31.4676 41.7062 31.4463 41.7647C31.4227 41.8297 31.3795 41.8928 31.3515 41.9563C31.2599 42.1635 31.1959 42.3833 31.1554 42.6078C31.0891 42.9761 31.0562 43.3631 31.1216 43.7341C31.152 43.9064 31.205 44.0748 31.2858 44.2283C31.327 44.3065 31.3752 44.3807 31.4296 44.4493C31.4578 44.485 31.4878 44.519 31.5192 44.5516C31.5372 44.5703 31.5607 44.5866 31.5759 44.6074C31.6132 44.6581 31.621 44.6164 31.6018 44.6909C31.575 44.795 31.5141 44.8978 31.4768 44.9991C31.4383 45.1036 31.4036 45.2094 31.3719 45.3164C31.3075 45.5329 31.2531 45.7533 31.2191 45.9775C31.1538 46.4079 31.1653 46.8666 31.3574 47.2616C31.4395 47.4306 31.5573 47.5788 31.7003 47.6941C31.7702 47.7506 31.846 47.7992 31.9254 47.8391C31.9663 47.8597 32.0184 47.8685 32.0371 47.9103C32.0571 47.9554 32.0273 48.0448 32.0206 48.0951C31.9615 48.5329 31.9319 48.9926 32.0547 49.4216C32.1678 49.8168 32.4168 50.1657 32.74 50.3967C33.3672 50.8448 34.2126 50.8195 34.8716 50.4608C35.0433 50.3673 35.204 50.2511 35.3474 50.1142C35.7124 50.635 36.4636 50.6186 36.9971 50.4701C37.6618 50.2853 38.1952 49.7954 38.5025 49.1518C38.9227 49.6939 39.8045 49.518 40.0959 48.9299C40.1672 48.7859 40.2095 48.6273 40.2303 48.4667C40.2413 48.3823 40.2343 48.2971 40.2425 48.2134C40.253 48.1067 40.3203 48.003 40.359 47.8997C40.4342 47.6988 40.481 47.4913 40.483 47.2745C40.4841 47.1614 40.4705 47.0511 40.4604 46.9389C40.4512 46.8378 40.4777 46.7437 40.4927 46.644C40.3222 46.6737 40.1145 46.625 39.9539 46.5726C39.7963 46.5212 39.6487 46.3858 39.5375 46.2621C39.2792 45.975 39.1214 45.5985 39.0135 45.2239C38.7766 44.4016 38.8737 43.415 39.654 42.9637C40.0175 42.7535 41.1066 42.7542 41.5396 42.8581C41.9948 42.9673 42.5109 44.032 42.5363 44.1321C42.552 44.194 42.5441 44.2707 42.5978 44.312C42.7158 44.4027 42.9104 44.2452 42.9974 44.1675C43.1475 44.0334 43.2547 43.8549 43.3474 43.674C43.5495 43.2799 43.7125 42.8573 43.8276 42.4258C43.9163 42.0932 43.9731 41.7502 44.0891 41.426C44.2045 41.1035 44.3864 40.8152 44.6693 40.6324C44.9771 40.4337 45.3298 40.329 45.6676 40.2041C46.0025 40.0803 46.3316 39.929 46.5912 39.6663C46.6482 39.6085 46.7037 39.5471 46.7496 39.4791C46.7859 39.4254 46.8217 39.3227 46.877 39.2886C46.9629 39.2357 47.0883 39.3734 47.1625 39.4234C47.529 39.6701 47.8348 40.0142 48.0814 40.39C48.3266 40.7638 48.5278 41.1235 48.6914 41.541C48.8127 41.8506 48.8884 42.247 49.1017 42.5008C49.1969 42.6141 49.9048 42.6826 50.1341 42.5837C50.3634 42.4848 50.6204 42.228 50.6974 42.067C50.7761 41.9023 50.795 41.7213 50.7613 41.541C50.7415 41.4349 50.7011 41.3358 50.6789 41.2316C50.6603 41.144 50.6434 41.0613 50.6032 40.9811C50.527 40.8291 50.3969 40.7199 50.2399 40.6742C50.4032 40.5146 50.5386 40.3236 50.6323 40.1101C50.7296 39.8884 50.8121 39.6187 50.8355 39.3752C50.8545 39.1775 50.8251 38.9727 50.723 38.8028C50.6159 38.6245 50.4261 38.5082 50.2619 38.3971C50.5127 38.1891 50.7274 37.9361 50.9039 37.6561C51.2471 37.1115 51.4593 36.425 51.285 35.7757Z" fill="#191847"/>
<path fill-rule="evenodd" clip-rule="evenodd" d="M35.5265 83.3849L48.8716 120.812L58.2256 148.398H63.5592L50.7013 83.3849L35.5265 83.3849Z" fill="#1F28CF"/>
<path fill-rule="evenodd" clip-rule="evenodd" d="M32.2283 83.3849C32.0832 96.2269 32.1881 113.517 31.8501 114.317C31.5121 115.118 10.8245 132.558 10.8245 132.558L13.5736 137.513C13.5736 137.513 38.1346 120.726 39.3903 118.489C40.646 116.252 46.9545 95.6706 50.2367 83.3849H32.2283Z" fill="#2B44FF"/>
<path fill-rule="evenodd" clip-rule="evenodd" d="M5.98791 135.893L10.6313 132.147L14.3778 136.879C14.8101 142.231 17.7212 148.883 17.7212 148.883L16.8707 149.639L10.0913 141.076L8.1972 137.768L7.77197 138.146L5.98791 135.893Z" fill="#191847"/>
<path fill-rule="evenodd" clip-rule="evenodd" d="M57.7306 153.693L58.0082 147.515L63.8367 147.515C67.9824 150.604 74.6612 152.516 74.6612 152.516V153.693H64.1143L60.5061 153.104V153.693H57.7306Z" fill="#191847"/>
<path fill-rule="evenodd" clip-rule="evenodd" d="M70.3541 70.125L59.3955 71.7093L61.3617 76.9131L70.2536 73.1767C74.0862 73.5774 75.9395 73.481 75.8134 72.8872C75.7071 72.3866 75.2997 72.2355 74.9245 72.0963C74.6321 71.9878 74.3593 71.8866 74.2635 71.6331C74.0448 71.054 75.2906 69.8538 76.5185 68.7689C77.7464 67.6839 76.9222 67.4843 76.4041 67.5003C74.5629 67.9578 72.5462 68.8327 70.3541 70.125ZM17.0407 98.655C17.854 96.9061 24.9708 74.3978 24.9708 74.3978L31.0485 74.4219C31.0485 74.4219 21.052 98.2651 20.6238 99.3897C20.0677 100.851 21.0124 102.973 21.6531 104.413C21.7522 104.635 21.844 104.842 21.9219 105.027C21.033 105.448 20.6059 104.939 20.1558 104.401C19.6473 103.795 19.1093 103.152 17.8428 103.777C17.3535 104.018 16.8904 104.304 16.4381 104.582C14.8755 105.545 13.44 106.429 11.4872 105.152C11.1776 104.95 10.8383 104.187 11.658 103.592C13.7002 102.108 16.643 99.51 17.0407 98.655Z" fill="#997659"/>
<path fill-rule="evenodd" clip-rule="evenodd" d="M41.6182 53.9674L46.3768 54.3034C47.5488 65.5412 53.9323 72.6395 68.2247 70.2365L70.1235 84.7083C56.7651 86.5381 45.0498 80.8697 42.6488 65.5221C42.0272 61.5492 41.5365 57.4145 41.6182 53.9674Z" fill="#AFB9C5"/>
<path fill-rule="evenodd" clip-rule="evenodd" d="M17.8743 95.7403C21.1782 77.1084 28.1516 62.6938 38.7945 52.4965H39.2512H39.2667L39.2705 52.5012L46.4804 54.2514C46.4804 63.4308 48.4072 70.2896 50.2596 76.8837C51.0596 79.7313 51.8457 82.5296 52.4568 85.4441H32.9848C32.7105 88.7833 32.542 92.2153 32.4543 95.7403H17.8743Z" fill="#C5CFD6"/>
<path fill-rule="evenodd" clip-rule="evenodd" d="M32.9848 85.4441C33.5432 78.6459 34.5404 72.2327 36.1889 66.2045C35.8276 72.6511 35.7273 80.6485 36.9423 85.4441H32.9848Z" fill="black" fill-opacity="0.1"/>
</svg>
