<svg width="205" height="292" viewBox="0 0 205 292" fill="none" xmlns="http://www.w3.org/2000/svg">
<circle cx="104" cy="142" r="88" fill="#FFF1BF"/>
<path fill-rule="evenodd" clip-rule="evenodd" d="M113.518 86.6498C109.719 88.9313 105.986 90.0336 104.234 89.5836C99.8402 88.4552 99.4363 72.4409 102.836 66.1276C106.236 59.8142 123.712 57.0625 124.593 69.5712C124.899 73.9126 123.069 77.787 120.366 80.9485L125.213 103.458H111.133L113.518 86.6498Z" fill="#915B3C"/>
<path fill-rule="evenodd" clip-rule="evenodd" d="M121.448 83.7642C123.215 75.9312 128.25 70.5917 127.481 67.0907C126.712 63.5897 123.382 62.7364 123.382 62.7364C123.382 62.7364 121.66 55.7954 112.274 56.8318C102.888 57.8683 97.1593 61.7518 99.6332 70.2974C101.907 70.2974 104.653 69.478 108.449 70.8819C110.256 71.5501 111.034 75.0261 111.034 75.0261H112.749C112.749 75.0261 115.247 70.901 117.674 71.9944C120.102 73.0878 118.778 77.3061 118.778 77.3061L119.623 83.7642H121.448Z" fill="#191847"/>
<path fill-rule="evenodd" clip-rule="evenodd" d="M157.907 176.521C166.743 176.521 173.907 183.685 173.907 192.521V233C173.907 241.837 166.743 249 157.907 249H103.667C94.8301 249 87.6667 241.837 87.6667 233V192.521C87.6667 183.685 94.8301 176.521 103.667 176.521H157.907ZM153.48 192.887C155.689 192.887 157.48 194.678 157.48 196.887V228.634C157.48 230.843 155.689 232.634 153.48 232.634H108.093C105.884 232.634 104.093 230.843 104.093 228.634V196.887C104.093 194.678 105.884 192.887 108.093 192.887H153.48Z" fill="#C5CFD6"/>
<path fill-rule="evenodd" clip-rule="evenodd" d="M29.4934 246.077C41.06 232.005 48.8863 221.572 52.9722 214.779C59.9682 203.148 65.6941 192.799 67.5011 188.845C71.81 179.417 57.5813 175.003 54.361 179.4C49.4869 186.056 39.0777 206.999 23.1333 242.23L29.4934 246.077Z" fill="#B28B67"/>
<path fill-rule="evenodd" clip-rule="evenodd" d="M53.1956 241.986L74.7218 187.999C79.3258 178.158 57.0921 171.688 53.7085 176.268C46.0266 186.667 27.7687 227.685 25.48 230.783L53.1956 241.986Z" fill="#2F3676"/>
<path fill-rule="evenodd" clip-rule="evenodd" d="M110.527 231.159C106.334 225.065 91.0819 204.562 82.7744 196.079C80.3872 193.642 78.0579 191.302 75.8548 189.122C69.3063 182.641 56.2661 193.534 62.8024 199.436C79.0805 214.137 102.831 233.982 104.816 235.752C107.597 238.232 113.163 234.989 110.527 231.159Z" fill="#915B3C"/>
<path fill-rule="evenodd" clip-rule="evenodd" d="M107.265 229.363C107.994 228.45 109.335 228.22 110.212 228.995C111.055 229.74 111.978 230.64 112.366 231.309C113.159 232.678 114.223 235.569 114.223 235.569C112.629 236.486 85.5674 252.052 85.5674 252.052C85.5674 252.052 82.3184 249.016 84.555 247.338C86.7916 245.66 88.2464 244.508 88.2464 244.508L97.8876 231.274C98.2186 230.819 98.8608 230.727 99.3079 231.07L101.025 232.388C101.025 232.388 103.853 232.142 105.246 231.341C105.89 230.97 106.642 230.144 107.265 229.363Z" fill="#E4E4E4"/>
<path fill-rule="evenodd" clip-rule="evenodd" d="M32.0169 243.665C33.1044 243.237 34.3786 243.706 34.749 244.815C35.105 245.88 35.4533 247.119 35.4533 247.893C35.4533 249.474 34.9246 252.507 34.9246 252.507C33.0837 252.507 1.83551 252.507 1.83551 252.507C1.83551 252.507 0.545712 248.259 3.32461 247.92C6.10351 247.581 7.94156 247.308 7.94156 247.308L22.9346 240.649C23.4485 240.421 24.0496 240.661 24.2646 241.18L25.0909 243.178C25.0909 243.178 27.6634 244.373 29.2718 244.373C30.0165 244.373 31.0845 244.032 32.0169 243.665Z" fill="#E4E4E4"/>
<path fill-rule="evenodd" clip-rule="evenodd" d="M82.4676 190.695C82.4676 190.695 109.305 186.339 118.419 184.738C135.74 181.695 140.79 172.409 137.804 152.148L105.892 152.148C99.5573 153.971 52.9551 174.693 52.9551 174.693C47.3653 177.457 48.4063 185.609 49.428 188.294C49.4905 188.459 77.6979 236.557 77.6979 236.557L103.803 219.988L82.4185 192.648C82.4185 192.648 81.5714 190.948 82.4676 190.695Z" fill="#5C63AB"/>
<path fill-rule="evenodd" clip-rule="evenodd" d="M61.4547 158.188L80.1683 144.497L84.3052 154.685L65.7737 162.342C60.5327 168.475 57.6021 171.032 56.9817 170.013C56.4587 169.153 56.8675 168.348 57.2441 167.607C57.5375 167.029 57.8113 166.49 57.6097 165.994C57.1494 164.86 53.6289 164.979 50.2928 165.235C46.9567 165.49 47.9289 164.011 48.7333 163.281C52.1387 161.25 56.3791 159.553 61.4547 158.188ZM159.593 182.313C157.874 178.838 152.019 144.969 152.019 144.969L139.76 145.017C139.76 145.017 151.114 181.538 152.019 183.772C153.195 186.675 151.198 190.893 149.844 193.752C149.634 194.195 149.44 194.605 149.276 194.972C151.155 195.81 152.057 194.797 153.009 193.73C154.083 192.524 155.221 191.249 157.898 192.49C158.932 192.969 159.911 193.536 160.867 194.09C164.17 196.002 167.204 197.76 171.332 195.222C171.986 194.82 172.703 193.305 170.971 192.121C166.654 189.173 160.434 184.011 159.593 182.313Z" fill="#915B3C"/>
<path fill-rule="evenodd" clip-rule="evenodd" d="M117.179 93.7152L112.106 92.8483C93.2837 109.048 85.5527 140.17 62.4813 156.657L68.0344 163.514C108.059 158.577 117.98 120.616 117.179 93.7152Z" fill="#E87613"/>
<path fill-rule="evenodd" clip-rule="evenodd" d="M139.293 157.232C139.293 157.232 108.782 157.232 94.4066 157.232C92.3555 157.232 92.742 154.282 93.0385 152.793C96.4605 135.608 109.818 117.084 109.818 92.6214L122.766 90.5986C133.475 107.759 137.179 128.886 139.293 157.232Z" fill="#DDE3E9"/>
<path fill-rule="evenodd" clip-rule="evenodd" d="M144.34 169.507C146.358 174.334 148.336 178.546 150.2 181.782H159.827C160.862 148.417 148.184 122.744 137.573 107.265C139.929 107.097 142.056 106.115 143.4 103.698C148.132 95.1905 146.423 90.5065 141.366 88.9668C138.585 88.1202 135.969 88.6981 132.839 89.3898C130.277 89.9559 127.37 90.5982 123.744 90.5986C123.743 90.5986 123.742 90.5986 123.741 90.5986C123.389 90.5986 123.07 90.622 122.779 90.6669L118.483 90.9112C118.483 90.9112 101.04 149.812 108.862 169.507H144.34Z" fill="#FF9B21"/>
<path fill-rule="evenodd" clip-rule="evenodd" d="M144.341 169.507C141.694 163.173 138.979 155.781 136.367 148.146C135.395 156.554 133.776 164.998 131.08 169.507H144.341Z" fill="black" fill-opacity="0.1"/>
</svg>
