<svg width="242" height="208" viewBox="0 0 242 208" fill="none" xmlns="http://www.w3.org/2000/svg">
<path fill-rule="evenodd" clip-rule="evenodd" d="M166.151 40.0325C163.043 41.9016 159.989 42.8047 158.555 42.436C154.96 41.5116 154.63 28.3914 157.411 23.2191C160.193 18.0467 174.492 15.7922 175.213 26.0404C175.463 29.5971 173.966 32.7714 171.754 35.3615L175.72 53.8028H164.2L166.151 40.0325Z" fill="#B28B67"/>
<path fill-rule="evenodd" clip-rule="evenodd" d="M163.977 17.2577C165.496 17.0093 169.584 16.8385 170.338 16.8387C170.819 16.8387 171.342 16.9485 171.627 16.5071C171.861 16.1457 171.775 15.5345 171.845 15.1151C171.926 14.6279 172.041 14.1469 172.157 13.6672C172.488 12.3022 172.989 11.0035 173.689 9.78421C175.004 7.49668 176.929 5.70484 179.36 4.66218C182.044 3.51091 185.082 3.2473 187.969 3.48081C191.059 3.73065 193.856 4.74828 196.774 5.70594C199.554 6.61851 202.466 6.97771 205.373 6.53207C208.303 6.08312 210.517 4.499 212.988 2.99548C215.518 1.45623 218.408 0.449508 221.399 0.68093C224.191 0.897026 226.763 2.04697 229.072 3.58313C231.232 5.02039 233.014 6.7496 234.02 9.18333C235.102 11.8013 235.101 14.6749 233.321 16.9886C230.741 20.3423 225.952 21.2095 221.968 21.1233C219.663 21.0736 217.399 20.6539 215.223 19.8904C212.321 18.8721 209.814 17.1462 207.099 15.7458C205.825 15.0887 204.508 14.549 203.128 14.1603C201.788 13.7829 200.469 13.6098 199.256 14.4171C197.973 15.2711 196.823 16.11 195.356 16.6446C193.948 17.1575 192.456 17.4444 190.956 17.4328C188.037 17.4103 185.16 16.503 182.326 15.8953C180.014 15.3999 177.54 14.906 175.184 15.3823C174.2 15.5811 172.764 15.9915 172.409 17.0111C178.387 18.092 180.735 25.468 179.049 30.8826C178.14 33.8051 172.672 37.2214 170.546 35.685C169.199 34.7117 170.017 33.4339 170.546 32.5903C171.56 30.9749 171.906 28.8998 170.031 27.7751C168.414 26.8051 166.713 29.1086 166.681 29.1061C166.236 29.0711 162.395 26.9038 159.748 23.7411C157.138 23.8955 156.741 22.178 157.365 20.7734C157.988 19.3689 161.879 17.6012 163.977 17.2577Z" fill="#191847"/>
<path fill-rule="evenodd" clip-rule="evenodd" d="M194.244 140.521C194.244 140.521 176.972 145.341 164.44 145.341C151.908 145.341 141.16 137.918 141.16 137.918C141.16 137.918 158.063 132.971 169 132.971C179.937 132.971 194.244 140.521 194.244 140.521Z" fill="#2F3676"/>
<path fill-rule="evenodd" clip-rule="evenodd" d="M154.472 149.972C154.583 149.806 154.677 149.625 154.751 149.428C156.29 145.367 180.944 101.559 183.4 93.5493H155.643C153.776 99.639 145.371 137.855 144.188 145.479C140.456 157.506 132.772 196.457 131.791 199.155C130.759 201.994 136.565 204.951 138.113 201.461C140.575 195.908 146.441 180.544 149.053 171.162C151.501 162.367 153.495 154.455 154.472 149.972Z" fill="#B28B67"/>
<path fill-rule="evenodd" clip-rule="evenodd" d="M154.472 149.972C154.583 149.806 154.677 149.625 154.751 149.428C156.29 145.367 180.944 101.559 183.4 93.5493H155.643C153.776 99.639 145.371 137.855 144.188 145.479C140.456 157.506 132.772 196.457 131.791 199.155C130.759 201.994 136.565 204.951 138.113 201.461C140.575 195.908 146.441 180.544 149.053 171.162C151.501 162.367 153.495 154.455 154.472 149.972Z" fill="black" fill-opacity="0.1"/>
<path fill-rule="evenodd" clip-rule="evenodd" d="M177.181 155.321C188.452 158.163 229.68 163.301 232.509 164.107C235.419 164.936 237.971 158.951 234.374 157.654C228.65 155.592 212.877 150.825 203.314 148.88C195.623 147.316 188.604 146.039 183.891 145.292C184.291 132.086 186.115 100.394 184.919 93.5493H160.36C161.507 100.113 171.203 148.006 173.005 152.8C173.577 154.511 175.284 155.267 177.181 155.321V155.321Z" fill="#B28B67"/>
<path fill-rule="evenodd" clip-rule="evenodd" d="M233.59 158.387C233.386 157.233 234.065 156.051 235.228 155.9C236.034 155.795 236.885 155.733 237.421 155.827C238.7 156.052 241.078 156.908 241.078 156.908C240.816 158.388 236.377 183.507 236.377 183.507C236.377 183.507 232.758 183.94 232.879 181.658C232.999 179.376 233.04 177.859 233.04 177.859L229.831 165.046C229.694 164.499 230.036 163.947 230.588 163.826L232.136 163.486C232.136 163.486 233.468 161.588 233.697 160.295C233.785 159.794 233.713 159.078 233.59 158.387Z" fill="#E4E4E4"/>
<path fill-rule="evenodd" clip-rule="evenodd" d="M137.498 200.897C138.597 200.496 139.875 200.958 140.226 202.073C140.47 202.849 140.68 203.675 140.68 204.22C140.68 205.515 140.247 208 140.247 208C138.741 208 113.175 208 113.175 208C113.175 208 112.119 204.519 114.393 204.242C116.667 203.964 118.17 203.741 118.17 203.741L130.266 198.361C130.78 198.132 131.382 198.373 131.597 198.893L132.202 200.357C132.202 200.357 134.306 201.336 135.622 201.336C136.135 201.336 136.834 201.138 137.498 200.897Z" fill="#E4E4E4"/>
<path fill-rule="evenodd" clip-rule="evenodd" d="M184.84 93.5493C184.84 93.5493 168.606 88.9157 154.12 93.5493C150.76 108.843 142.596 114.913 141.16 138.362C157.48 146.452 177.64 132.592 194.44 140.481C199.24 129.446 192.52 102.87 184.84 93.5493Z" fill="#5C63AB"/>
<path fill-rule="evenodd" clip-rule="evenodd" d="M123.554 98.6422L138.865 87.4252L142.25 95.7725L127.088 102.045C122.8 107.07 120.402 109.165 119.894 108.33C119.466 107.625 119.801 106.966 120.109 106.358C120.349 105.885 120.573 105.444 120.408 105.037C120.031 104.108 117.151 104.206 114.421 104.415C111.692 104.625 112.487 103.413 113.145 102.815C115.932 101.151 119.401 99.7601 123.554 98.6422ZM203.849 118.407C202.442 115.56 197.652 87.8124 197.652 87.8124L187.621 87.8517C187.621 87.8517 196.912 117.772 197.652 119.603C198.614 121.981 196.98 125.436 195.872 127.779C195.701 128.142 195.542 128.478 195.407 128.779C196.945 129.465 197.683 128.635 198.462 127.761C199.341 126.773 200.271 125.728 202.462 126.745C203.308 127.137 204.109 127.602 204.891 128.055C207.594 129.623 210.076 131.062 213.453 128.983C213.989 128.654 214.575 127.413 213.158 126.443C209.626 124.027 204.537 119.799 203.849 118.407Z" fill="#B28B67"/>
<path fill-rule="evenodd" clip-rule="evenodd" d="M169.146 45.821L164.996 45.1107C149.596 58.3829 143.27 83.8803 124.394 97.3874L128.937 103.006C161.685 98.9608 169.801 67.86 169.146 45.821Z" fill="#E87613"/>
<path fill-rule="evenodd" clip-rule="evenodd" d="M187.24 97.8592C187.24 97.8592 162.276 97.8592 150.514 97.8592C148.836 97.8592 149.153 95.4416 149.395 94.2217C152.195 80.1426 163.124 64.9661 163.124 44.9249L173.718 43.2676C182.48 57.3266 185.51 74.636 187.24 97.8592Z" fill="#DDE3E9"/>
<path fill-rule="evenodd" clip-rule="evenodd" d="M191.37 107.915C193.02 111.87 194.639 115.321 196.164 117.972H204.04C204.887 90.6371 194.514 69.6039 185.833 56.9217C187.76 56.7842 189.5 55.9795 190.6 53.9997C194.472 47.0297 193.074 43.1921 188.936 41.9307C186.66 41.2371 184.52 41.7105 181.959 42.2773C179.863 42.741 177.484 43.2673 174.518 43.2676C174.517 43.2676 174.516 43.2676 174.515 43.2676C174.228 43.2676 173.966 43.2868 173.729 43.3236L170.214 43.5237C170.214 43.5237 155.942 91.7801 162.341 107.915H191.37Z" fill="#FF9B21"/>
<path fill-rule="evenodd" clip-rule="evenodd" d="M191.37 107.915C189.204 102.726 186.983 96.6698 184.846 90.4148C184.051 97.3031 182.726 104.222 180.52 107.915H191.37Z" fill="black" fill-opacity="0.1"/>
<path fill-rule="evenodd" clip-rule="evenodd" d="M65.3178 49.686C62.3818 51.445 59.497 52.2949 58.1429 51.948C54.7472 51.078 54.435 38.7305 57.0624 33.8628C59.6897 28.995 73.1965 26.8734 73.8773 36.5179C74.1136 39.8652 72.6996 42.8525 70.6104 45.2901L74.3565 62.6453H63.4749L65.3178 49.686Z" fill="#B28B67"/>
<path fill-rule="evenodd" clip-rule="evenodd" d="M78.6214 33.3075C78.9729 32.9613 79.1646 32.4671 79.3304 31.9979C79.5027 31.5105 79.67 31.0181 79.7844 30.5108C80.0128 29.4971 80.015 28.3314 79.2875 27.5443C78.704 26.9131 77.8286 26.63 77.0206 26.5684C76.4823 26.5274 75.9295 26.6023 75.4135 26.771C74.9015 26.9382 74.4602 27.2716 73.9639 27.4785C73.9449 26.3862 73.7567 25.2432 73.1991 24.3104C72.6626 23.413 71.8073 22.9094 70.8331 22.7762C69.8333 22.6395 68.8459 22.872 67.9508 23.3532C67.7267 23.4737 67.5047 23.5999 67.2923 23.7428C67.1144 23.8624 66.9294 24.0065 66.7207 24.0552C66.488 24.1095 66.3726 23.9759 66.2214 23.8071C66.0441 23.6093 65.8443 23.435 65.6329 23.2805C64.6981 22.5975 63.4716 22.3167 62.3886 22.7261C61.8897 22.9147 61.4045 23.235 61.0659 23.6764C60.7642 24.0699 60.5489 24.694 60.1324 24.9682C59.9557 25.0846 59.8309 24.9304 59.67 24.8164C59.4282 24.6452 59.1977 24.4563 58.9531 24.2897C58.6095 24.0557 58.2374 23.8807 57.839 23.7891C57.2558 23.655 56.4498 23.6864 56.283 24.4457C56.2204 24.7309 56.2684 25.0359 56.2887 25.3233C56.3164 25.7179 56.3454 26.1123 56.3798 26.5063C56.406 26.8055 56.4391 27.0944 56.4959 27.3882C56.5262 27.5448 56.621 27.8367 56.5534 27.9936C56.469 28.1896 56.0794 28.0781 55.9129 28.0849C55.5841 28.0984 55.2539 28.1558 54.9499 28.2954C54.7143 28.4037 54.4666 28.5629 54.3671 28.8313C54.306 28.9962 54.3221 29.1656 54.351 29.3352C54.3856 29.5388 54.346 29.6468 54.3201 29.8522C53.8785 29.6361 52.3482 29.1558 52.1557 29.9425C52.0916 30.2044 52.2376 30.5004 52.3489 30.7213C52.5443 31.1087 52.8004 31.4629 53.0622 31.8006C53.6084 32.5052 54.2604 33.1128 54.9619 33.6325C54.14 33.9957 53.9254 35.067 54.637 35.7053C54.9512 35.9871 55.3737 36.0498 55.77 36.0318C55.9151 36.0252 56.1242 35.9698 56.2383 35.9949C56.2998 36.0084 56.3655 36.0601 56.4506 36.0659C57.0099 36.104 57.6413 35.97 58.1881 35.8467C59.1624 35.6269 60.0847 35.168 60.8379 34.4693C61.0312 34.29 61.1908 34.1869 61.4509 34.1895C61.6788 34.1918 61.9024 34.2539 62.13 34.2596C62.7325 34.2749 63.2757 33.9822 63.8351 33.7873C63.8693 34.5385 64.0845 35.3659 64.3937 36.0417C64.6458 36.5928 65.1722 36.6728 65.6895 36.7212C67.3438 36.8759 69.0039 36.7032 70.6602 36.7055C69.0568 37.0658 67.4 37.2142 65.8109 37.6382C65.0925 37.8297 65.641 38.311 65.9482 38.6446C66.4539 39.1939 66.83 39.8745 67.0908 40.5916C67.8751 39.5753 69.2615 38.9057 70.4898 39.2179C71.8469 39.5628 72.8025 41.3871 71.9347 42.6985C71.4308 43.4598 70.521 43.7538 69.764 44.0808C70.3545 44.6912 70.4974 45.5926 70.8529 46.3519C71.0282 46.7263 71.2743 47.1497 71.6663 47.2802C71.8114 47.3285 71.9815 47.3326 72.0959 47.4502C72.2377 47.5957 72.2714 47.7584 72.4525 47.8835C73.1749 48.3827 74.3032 48.3442 74.9435 47.6927C75.5226 47.1036 75.3719 46.1713 74.8883 45.5739C75.6581 45.255 77.0605 44.8448 76.7546 43.6528C78.4226 43.5427 82.4725 40.8537 80.2338 38.8888C81.4624 38.1986 82.5911 36.5119 81.802 35.025C81.1943 33.88 79.781 33.3682 78.6214 33.3075" fill="#191847"/>
<path fill-rule="evenodd" clip-rule="evenodd" d="M77.9837 100.051L60.9219 155.494L52.6568 202.645H46.1764L54.9098 100.051H77.9837Z" fill="#B28B67"/>
<path fill-rule="evenodd" clip-rule="evenodd" d="M77.9837 100.051L60.9219 155.494L52.6568 202.645H46.1764L54.9098 100.051H77.9837Z" fill="black" fill-opacity="0.1"/>
<path fill-rule="evenodd" clip-rule="evenodd" d="M84.0874 100.051C82.9285 130.492 84.2924 146.195 84.5518 148.96C84.8111 151.726 88.3627 169.659 96.7708 203.574L89.8654 201.216C76.5773 170.112 72.0492 153.946 70.5251 149.862C69.0011 145.777 64.9533 129.174 58.3817 100.051H84.0874Z" fill="#B28B67"/>
<path fill-rule="evenodd" clip-rule="evenodd" d="M94.3651 201.115C95.4658 200.727 96.7422 201.184 97.0866 202.299C97.3014 202.994 97.4798 203.718 97.4798 204.203C97.4798 205.422 97.0711 207.761 97.0711 207.761C95.6484 207.761 71.4987 207.761 71.4987 207.761C71.4987 207.761 70.5019 204.486 72.6495 204.224C74.7972 203.963 76.2177 203.753 76.2177 203.753L87.5931 198.712C88.1066 198.485 88.7067 198.724 88.9219 199.243L89.4713 200.568C89.4713 200.568 91.4594 201.49 92.7025 201.49C93.1586 201.49 93.7716 201.325 94.3651 201.115Z" fill="#E4E4E4"/>
<path fill-rule="evenodd" clip-rule="evenodd" d="M51.7457 201.115C52.8464 200.727 54.1228 201.184 54.4673 202.299C54.682 202.994 54.8604 203.718 54.8604 204.203C54.8604 205.422 54.4518 207.761 54.4518 207.761C53.029 207.761 28.8793 207.761 28.8793 207.761C28.8793 207.761 27.8825 204.486 30.0301 204.224C32.1778 203.963 33.5983 203.753 33.5983 203.753L44.9737 198.712C45.4872 198.485 46.0874 198.724 46.3025 199.243L46.8519 200.568C46.8519 200.568 48.8401 201.49 50.0831 201.49C50.5392 201.49 51.1523 201.325 51.7457 201.115Z" fill="#E4E4E4"/>
<path fill-rule="evenodd" clip-rule="evenodd" d="M80.2507 100.051L72.9963 128.299H50.8386L54.1424 100.051H80.2507Z" fill="#69A1AC"/>
<path fill-rule="evenodd" clip-rule="evenodd" d="M84.3312 100.051C87.9116 110.719 85.6914 128.299 85.6914 128.299H63.0803L56.8628 100.051H84.3312Z" fill="#89C5CC"/>
<path fill-rule="evenodd" clip-rule="evenodd" d="M106.367 120.29C105.039 117.61 98.4003 83.1281 98.4003 83.1281L88.472 83.1652C88.472 83.1652 99.8145 119.692 100.514 121.415C101.423 123.653 99.8792 126.905 98.8327 129.11C98.6708 129.451 98.5207 129.767 98.3935 130.051C99.8456 130.697 100.543 129.916 101.279 129.093C102.109 128.163 102.988 127.18 105.057 128.136C105.856 128.506 106.613 128.943 107.352 129.37C109.904 130.845 112.249 132.2 115.439 130.243C115.945 129.933 116.499 128.765 115.16 127.853C111.824 125.579 107.017 121.6 106.367 120.29ZM22.7503 106.854L35.5941 94.3997L39.86 101.737L26.5041 109.564C23.1553 114.807 21.1885 117.073 20.6036 116.36C20.1105 115.76 20.3365 115.102 20.5447 114.495C20.7069 114.023 20.8582 113.582 20.6504 113.225C20.1757 112.408 17.4942 112.876 14.9687 113.428C12.4431 113.979 13.0275 112.746 13.5643 112.103C15.9512 110.188 19.0132 108.438 22.7503 106.854Z" fill="#B28B67"/>
<path fill-rule="evenodd" clip-rule="evenodd" d="M68.1472 55.1336L64.2266 54.4652C58.0505 76.1658 26.3178 90.9578 24.3698 99.07C23.6554 102.045 25.8094 103.549 24.6968 104.455L29.7928 108.163C30.6557 107.162 32.4973 108.993 36.343 107.712C40.1888 106.432 68.1472 80.829 68.1472 55.1336Z" fill="#DB2721"/>
<path fill-rule="evenodd" clip-rule="evenodd" d="M72.939 50.7546C75.1428 50.6014 77.055 52.2637 77.2101 54.4674L77.2416 54.9154C84.62 60.5593 102.907 77.4243 107.673 108.82C108.173 112.118 107.268 113.884 106.545 115.295C106.05 116.261 105.64 117.06 105.824 118.07L99.1545 119.9C99.1545 119.154 98.3139 118.587 97.2295 117.855C95.6527 116.791 93.5603 115.379 92.7866 112.565C92.0532 109.897 90.9793 106.565 89.6964 102.858C89.5752 107.768 88.6386 112.282 86.5982 116.022C81.5078 125.351 52.0907 115.12 49.0173 105.602C47.3773 100.524 49.7044 96.26 52.7821 90.6209C56.7314 83.3849 61.9166 73.8843 61.542 57.4914C61.5136 57.3401 61.4936 57.1857 61.4826 57.0284L61.3798 55.5677C61.2248 53.364 62.8856 51.4534 65.0895 51.3002L72.939 50.7546Z" fill="#FF4133"/>
</svg>
