<svg width="291" height="243" viewBox="0 0 291 243" fill="none" xmlns="http://www.w3.org/2000/svg">
<path fill-rule="evenodd" clip-rule="evenodd" d="M88.4385 42.7555C92.1112 44.9734 95.7197 46.045 97.4136 45.6075C101.661 44.5106 102.052 28.9425 98.7651 22.805C95.4786 16.6676 78.5832 13.9925 77.7316 26.1527C77.436 30.3731 79.2048 34.1396 81.8181 37.213L77.1322 59.0952H90.7438L88.4385 42.7555Z" fill="#B28B67"/>
<path fill-rule="evenodd" clip-rule="evenodd" d="M89.119 27.4957C90.2964 25.7393 91.4267 24.3996 92.8971 23.6216C98.8811 23.7163 99.5817 22.6415 99.5817 19.019C98.6152 18.3261 95.2049 17.1593 91.3858 16.8311C89.4375 16.2725 87.1296 16.3776 84.9063 17.3093C82.1617 18.0895 79.8377 19.7698 78.8112 22.9155C75.0973 29.3368 77.9162 36.0212 81.715 38.3046C82.7261 37.1043 83.6086 35.9411 84.3959 34.8276C83.7634 34.2086 83.3708 33.3446 83.3708 32.3887C83.3708 30.5058 84.8943 28.9794 86.7737 28.9794C86.9119 28.9794 87.0481 28.9876 87.182 29.0037C87.2665 31.3578 87.6145 39.3225 88.5287 42.0891C89.6065 45.3508 95.8955 46.1516 98.089 46.1516C99.9836 46.1516 99.919 44.3542 99.8727 43.0661C99.866 42.8806 99.8597 42.7056 99.8597 42.5481C99.8597 42.219 99.4325 42.2199 98.9499 42.2208C98.3231 42.2221 97.6028 42.2235 97.6028 41.503C97.6028 40.7177 98.6861 40.1153 99.6554 39.5762C100.26 39.2399 100.821 38.9282 101.046 38.6122C101.757 37.6151 101.996 36.2703 100.924 36.2703C100.338 36.2703 99.5331 36.6089 98.5653 37.0163C97.1043 37.6314 95.271 38.4032 93.2538 38.4032C89.9214 38.4032 89.1288 27.6305 89.119 27.4957Z" fill="#191847"/>
<path fill-rule="evenodd" clip-rule="evenodd" d="M66.1545 106.258C67.1772 120.241 133.057 161.411 133.441 162.567C133.697 163.337 112.935 211.253 112.935 211.253L118.694 213.495C118.694 213.495 150.54 162.748 148.904 157.341C146.562 149.599 97.7889 106.406 97.7889 106.406L66.1545 106.258Z" fill="#B28B67"/>
<path fill-rule="evenodd" clip-rule="evenodd" d="M66.1545 106.258C67.1772 120.241 133.057 161.411 133.441 162.567C133.697 163.337 112.935 211.253 112.935 211.253L118.694 213.495C118.694 213.495 150.54 162.748 148.904 157.341C146.562 149.599 97.7889 106.406 97.7889 106.406L66.1545 106.258Z" fill="black" fill-opacity="0.1"/>
<path fill-rule="evenodd" clip-rule="evenodd" d="M114.451 204.039L123.853 207.468C143.679 185.056 151.45 166.564 150.033 157.142C148.616 147.72 99.0946 106.292 99.0946 106.292L65.4803 106.292C66.6272 138.676 127.689 162.69 128.506 164.07C129.323 165.45 121.285 178.966 114.451 204.039Z" fill="#2F3676"/>
<path fill-rule="evenodd" clip-rule="evenodd" d="M113.205 210.733C112.325 209.958 110.964 209.961 110.239 210.882C109.575 211.725 108.873 212.714 108.622 213.405C108.097 214.849 107.571 217.795 107.571 217.795C109.243 218.405 137.63 228.756 137.63 228.756C137.63 228.756 140.211 225.303 137.799 224.073C135.387 222.843 133.808 221.984 133.808 221.984L122.425 210.96C122.019 210.568 121.371 210.588 120.991 211.004L119.6 212.53C119.6 212.53 116.866 212.77 115.405 212.237C114.747 211.997 113.918 211.36 113.205 210.733Z" fill="#E4E4E4"/>
<path fill-rule="evenodd" clip-rule="evenodd" d="M73.7293 106.258L44.3816 176.846L15.5375 236.523H22.3427L96.7973 106.258H73.7293Z" fill="#B28B67"/>
<path fill-rule="evenodd" clip-rule="evenodd" d="M17.5746 233.496C16.4831 233.07 15.2042 233.539 14.8372 234.652C14.501 235.672 14.1787 236.842 14.1787 237.577C14.1787 239.114 14.6898 242.063 14.6898 242.063C16.4695 242.063 46.678 242.063 46.678 242.063C46.678 242.063 47.9249 237.933 45.2385 237.604C42.552 237.274 40.7751 237.009 40.7751 237.009L26.315 230.55C25.8001 230.32 25.197 230.561 24.9824 231.083L24.1964 232.993C24.1964 232.993 21.7094 234.156 20.1546 234.156C19.4542 234.156 18.4581 233.842 17.5746 233.496Z" fill="#E4E4E4"/>
<path fill-rule="evenodd" clip-rule="evenodd" d="M18.1423 224.126L33.2637 226.967C44.9555 209.745 93.8862 139.13 99.251 106.258H65.5874C47.6716 130.021 29.287 206.619 18.1423 224.126Z" fill="#5C63AB"/>
<path fill-rule="evenodd" clip-rule="evenodd" d="M138.595 112.939L122.529 97.2357L117.193 106.486L133.9 116.355C138.089 122.966 140.549 125.823 141.281 124.925C141.898 124.168 141.615 123.338 141.354 122.573C141.152 121.978 140.962 121.422 141.222 120.971C141.816 119.942 145.17 120.531 148.329 121.227C151.488 121.923 150.758 120.368 150.086 119.556C147.1 117.142 143.27 114.936 138.595 112.939ZM43.8962 135.753C45.5582 132.375 51.218 99.4503 51.218 99.4503L63.07 99.497C63.07 99.497 52.0929 135 51.218 137.172C50.0815 139.994 52.0121 144.094 53.3211 146.874C53.5236 147.304 53.7113 147.703 53.8704 148.06C52.054 148.875 51.1815 147.89 50.2616 146.853C49.2226 145.68 48.1232 144.44 45.5352 145.647C44.5353 146.113 43.5892 146.664 42.6648 147.202C39.4718 149.062 36.5385 150.77 32.5481 148.303C31.9155 147.912 31.2223 146.439 32.8972 145.289C37.0702 142.422 43.0836 137.405 43.8962 135.753Z" fill="#915B3C"/>
<path fill-rule="evenodd" clip-rule="evenodd" d="M84.8993 49.6241L89.8035 48.7813C98.2469 69.9136 112.988 89.115 134.028 106.386L118.129 125.737C97.0924 101.146 84.1253 75.7753 84.8993 49.6241Z" fill="#191847"/>
<path fill-rule="evenodd" clip-rule="evenodd" d="M63.5206 111.372H107.191C107.191 111.372 92.0149 74.4018 92.0149 48.5607L78.8417 46.5943C68.4888 63.2764 65.5651 83.8154 63.5206 111.372Z" fill="#DDE3E9"/>
<path fill-rule="evenodd" clip-rule="evenodd" d="M43.6705 130.123C48.4464 76.1396 78.5524 46.5943 78.5524 46.5943L78.5628 46.6036C78.5646 46.6005 78.5663 46.5974 78.568 46.5943H79.4279C80.9713 46.6475 84.1295 46.7861 84.1295 46.7861L87.3126 55.9C87.8177 72.5678 93.2115 123.08 93.2115 123.08H64.6265C64.6752 125.396 64.7828 127.745 64.9559 130.123H43.6705Z" fill="#2F3676"/>
<path fill-rule="evenodd" clip-rule="evenodd" d="M64.6314 123.304C64.4032 113.219 65.2963 103.748 66.7861 95.1784C67.5653 105.348 69.1938 117.584 72.595 123.304H64.6314Z" fill="black" fill-opacity="0.1"/>
<path fill-rule="evenodd" clip-rule="evenodd" d="M70.9565 105.689L85.0723 99.1147V105.689H70.9565Z" fill="white" fill-opacity="0.2"/>
<path fill-rule="evenodd" clip-rule="evenodd" d="M214.794 49.8077C218.175 51.8374 221.498 52.8181 223.058 52.4178C226.968 51.4139 227.328 37.1666 224.302 31.5499C221.276 25.9331 205.72 23.485 204.935 34.6135C204.663 38.4759 206.292 41.9228 208.698 44.7354L204.384 64.7611H216.916L214.794 49.8077Z" fill="#B28B67"/>
<path fill-rule="evenodd" clip-rule="evenodd" d="M204.203 34.5534C203.919 34.5844 203.631 34.6003 203.339 34.6003C199.013 34.6003 195.506 31.108 195.506 26.8001C195.506 22.4922 199.013 18.9999 203.339 18.9999C207.628 18.9999 211.112 22.4324 211.171 26.6891C217.467 24.5171 225.638 27.0553 224.544 32.1462C223.873 35.27 220.372 36.8997 216.798 38.563L216.793 38.5655C216.629 38.6421 216.464 38.7187 216.3 38.7955C215.749 37.8436 214.699 37.2004 213.494 37.2004C211.719 37.2004 210.279 38.5973 210.279 40.3205C210.279 40.9412 210.466 41.5195 210.788 42.0055C209.53 43.0955 208.642 44.4075 208.427 46.1091C206.399 46.1091 203.121 40.1793 204.203 34.5534Z" fill="#191847"/>
<path fill-rule="evenodd" clip-rule="evenodd" d="M203.339 107.922L228.97 172.522L246.16 227.135H252.948L226.668 107.922L203.339 107.922Z" fill="#B28B67"/>
<path fill-rule="evenodd" clip-rule="evenodd" d="M198.178 107.922C197.905 130.623 193.925 161.186 193.289 162.601C192.653 164.016 149.384 198.591 149.384 198.591L154.059 203.573C154.059 203.573 205.113 173.929 207.476 169.976C209.838 166.022 217.53 129.64 223.705 107.922H198.178Z" fill="#B28B67"/>
<path fill-rule="evenodd" clip-rule="evenodd" d="M150.453 198.651C150.066 197.547 148.884 196.868 147.797 197.308C146.926 197.661 146 198.093 145.513 198.5C144.431 199.404 142.658 201.498 142.658 201.498C143.711 202.748 161.59 223.965 161.59 223.965C161.59 223.965 165.235 222.412 163.877 220.331C162.519 218.25 161.654 216.846 161.654 216.846L157.666 202.97C157.51 202.43 156.937 202.123 156.399 202.293L154.669 202.84C154.669 202.84 152.379 201.777 151.459 200.684C151.072 200.226 150.725 199.425 150.453 198.651Z" fill="#E4E4E4"/>
<path fill-rule="evenodd" clip-rule="evenodd" d="M245.785 224.425C244.692 224.012 243.417 224.477 243.056 225.588C242.767 226.481 242.504 227.467 242.504 228.1C242.504 229.507 242.975 232.205 242.975 232.205C244.613 232.205 272.428 232.205 272.428 232.205C272.428 232.205 273.576 228.426 271.102 228.124C268.629 227.823 266.993 227.58 266.993 227.58L253.75 221.701C253.236 221.473 252.635 221.713 252.42 222.233L251.728 223.905C251.728 223.905 249.438 224.969 248.006 224.969C247.402 224.969 246.558 224.717 245.785 224.425Z" fill="#E4E4E4"/>
<path fill-rule="evenodd" clip-rule="evenodd" d="M220.572 221.51L252.846 218.022L228.927 107.922H200.02L220.572 221.51Z" fill="#69A1AC"/>
<path fill-rule="evenodd" clip-rule="evenodd" d="M156.059 190.553L177.229 215.506C177.229 215.506 210.676 179.129 216.228 168.034C221.781 156.939 226.211 107.922 226.211 107.922H193.667C193.667 107.922 191.247 151.045 190.405 153.051C189.562 155.058 156.059 190.553 156.059 190.553Z" fill="#89C5CC"/>
<path fill-rule="evenodd" clip-rule="evenodd" d="M265.733 84.4827L245.115 87.2833L248.814 96.4819L265.544 89.8771C272.755 90.5855 276.242 90.415 276.004 89.3655C275.804 88.4805 275.038 88.2134 274.332 87.9673C273.782 87.7756 273.269 87.5967 273.088 87.1485C272.677 86.1249 275.021 84.0033 277.331 82.0855C279.641 80.1676 278.091 79.8147 277.116 79.843C273.652 80.6516 269.857 82.1982 265.733 84.4827ZM165.427 134.915C166.957 131.824 180.347 92.0356 180.347 92.0356L191.782 92.0784C191.782 92.0784 172.974 134.226 172.168 136.214C171.122 138.796 172.899 142.549 174.105 145.093C174.291 145.486 174.464 145.851 174.61 146.178C172.938 146.923 172.135 146.023 171.288 145.073C170.331 144 169.319 142.865 166.936 143.969C166.015 144.396 165.144 144.9 164.293 145.393C161.353 147.094 158.652 148.658 154.978 146.4C154.396 146.042 153.757 144.695 155.299 143.642C159.142 141.018 164.678 136.427 165.427 134.915Z" fill="#915B3C"/>
<path fill-rule="evenodd" clip-rule="evenodd" d="M211.668 55.9209L220.621 56.5148C222.826 76.38 234.836 88.9276 261.727 84.6797L265.299 110.262C240.166 113.496 218.124 103.476 213.607 76.3462C212.438 69.3231 211.514 62.0143 211.668 55.9209Z" fill="#AFB9C5"/>
<path fill-rule="evenodd" clip-rule="evenodd" d="M166.995 129.763C173.211 96.8272 186.331 71.3465 206.355 53.3208H207.215H207.244L207.251 53.3291L220.816 56.4228C220.816 72.6493 224.441 84.7736 227.926 96.43C229.431 101.464 230.91 106.41 232.06 111.562H195.425C194.909 117.465 194.592 123.532 194.426 129.763H166.995Z" fill="#C5CFD6"/>
<path fill-rule="evenodd" clip-rule="evenodd" d="M195.425 111.562C196.475 99.5451 198.351 88.2085 201.453 77.5525C200.773 88.9481 200.585 103.085 202.871 111.562H195.425Z" fill="black" fill-opacity="0.1"/>
</svg>
